<svg width="26" height="23" viewBox="0 0 26 23" fill="none" xmlns="http://www.w3.org/2000/svg">
<path d="M24.8433 21.999V19.9758C24.8176 17.7158 22.965 15.9044 20.705 15.9295H12.4284C10.1683 15.9044 8.31572 17.7158 8.29004 19.9758V21.999" stroke="#ffffff" stroke-width="1.2" stroke-linecap="round" stroke-linejoin="round"/>
<ellipse cx="16.5667" cy="8.66453" rx="4.13832" ry="4.04636" stroke="#ffffff" stroke-width="1.2" stroke-linecap="round" stroke-linejoin="round"/>
<path fill-rule="evenodd" clip-rule="evenodd" d="M0.625 17.4187L3.68785 14.6455L6.31609 17.2738H4.63983C4.63983 17.2738 4.47429 20.6471 6.79175 21.8473C6.79175 21.8473 2.85969 21.268 2.32163 17.4601L0.625 17.4187Z" stroke="#ffffff" stroke-linecap="round" stroke-linejoin="round"/>
<path d="M13.768 2.80254L12.7461 3.54305C12.7358 3.5505 12.7224 3.5524 12.7104 3.54814C12.6984 3.54388 12.6892 3.534 12.6859 3.5217C12.2777 2.09856 10.9278 1.1564 9.45119 1.264C8.53988 1.3158 7.70071 1.77638 7.16763 2.51733C6.63456 3.25828 6.46461 4.20034 6.70517 5.08085C6.95461 5.88457 7.51658 6.55432 8.26475 6.93958C9.01293 7.32483 9.88454 7.39326 10.6837 7.12948C10.6784 7.17086 10.6754 7.20695 10.6693 7.24254C10.6071 7.61259 10.5478 7.98321 10.4779 8.35161C10.4621 8.41618 10.4106 8.46591 10.3455 8.4794C8.00564 8.8537 5.79843 7.28099 5.38819 4.94718C5.2106 3.79167 5.51222 2.61373 6.22331 1.68577C6.9344 0.757819 7.99337 0.160224 9.1553 0.0311918C11.0824 -0.20289 12.9339 0.858174 13.7062 2.63916C13.7321 2.70016 13.7532 2.76306 13.768 2.80254Z" fill="#ffffff"/>
<path d="M1.78926 14.172C1.74691 14.172 1.70648 14.1544 1.67756 14.1235C1.64863 14.0925 1.63379 14.051 1.63656 14.0087C1.66637 13.601 1.76618 13.2013 1.93162 12.8274C2.53864 11.3577 3.91123 10.3464 5.49479 10.202C5.69571 10.1795 5.89782 10.1694 6.09998 10.1717C7.60307 10.1692 9.10622 10.1688 10.6094 10.1704L10.658 10.2041L11.1019 11.3917L11.078 11.426C9.42578 11.426 7.77351 11.4316 6.12133 11.4239C5.27511 11.3893 4.44973 11.6918 3.82622 12.2649C3.31994 12.7281 2.99094 13.3533 2.89585 14.0328C2.88832 14.0825 2.83228 14.1648 2.79719 14.1658C2.46422 14.1742 2.13109 14.1726 1.78926 14.172Z" fill="#ffffff"/>
</svg>
