<svg width="22" height="22" viewBox="0 0 22 22" fill="none" xmlns="http://www.w3.org/2000/svg">
<path fill-rule="evenodd" clip-rule="evenodd" d="M11.2451 12.7707V13.2029H10.0814V12.5911C10.0814 12.2985 10.1279 12.0337 10.221 11.7965C10.3141 11.5593 10.4604 11.341 10.6599 11.1415C10.8594 10.942 11.1098 10.7514 11.4113 10.5696C11.6684 10.41 11.8757 10.2538 12.033 10.1008C12.1904 9.94787 12.3046 9.78052 12.3755 9.59876C12.4464 9.41701 12.4819 9.20865 12.4819 8.97369V8.96039C12.4819 8.68554 12.4154 8.44172 12.2824 8.22892C12.1494 8.01613 11.961 7.84767 11.7172 7.72355C11.4734 7.59942 11.1852 7.53735 10.8527 7.53735C10.5202 7.53735 10.2299 7.59942 9.98161 7.72355C9.73336 7.84767 9.53719 8.025 9.39311 8.25552C9.24904 8.48605 9.16592 8.75868 9.14375 9.07344L9.13045 9.08009L8 9.08674V9.07344C8.0266 8.59909 8.15073 8.16686 8.37238 7.77674C8.59404 7.38663 8.91544 7.07631 9.33659 6.84578C9.75774 6.61526 10.2786 6.5 10.8993 6.5C11.4578 6.5 11.9488 6.60529 12.3722 6.81586C12.7955 7.02644 13.1258 7.31237 13.363 7.67367C13.6002 8.03497 13.7188 8.44393 13.7188 8.90055V8.91384C13.7188 9.43252 13.5935 9.87916 13.343 10.2538C13.0926 10.6284 12.7545 10.9442 12.329 11.2013C12.0497 11.3654 11.8313 11.5227 11.674 11.6735C11.5166 11.8242 11.4058 11.986 11.3415 12.1589C11.2772 12.3318 11.2451 12.5357 11.2451 12.7707ZM11.4146 16.029C11.2439 16.2019 11.0234 16.2884 10.753 16.2884C10.4826 16.2884 10.2609 16.2019 10.088 16.029C9.91512 15.8561 9.82867 15.6345 9.82867 15.3641C9.82867 15.0892 9.91512 14.8653 10.088 14.6924C10.2609 14.5195 10.4826 14.4331 10.753 14.4331C11.0234 14.4331 11.2439 14.5195 11.4146 14.6924C11.5853 14.8653 11.6706 15.0892 11.6706 15.3641C11.6706 15.6345 11.5853 15.8561 11.4146 16.029Z" fill="#072245"/>
<circle cx="11" cy="11" r="10.375" stroke="#072245" stroke-width="1.25"/>
</svg>
