<svg width="128" height="28" viewBox="0 0 128 28" fill="none" xmlns="http://www.w3.org/2000/svg">
<path d="M86.8618 17.3662V20.0563H85.7269V13.125H88.1162C88.9258 13.125 89.5331 13.3148 89.9379 13.6944C90.3494 14.074 90.5551 14.5944 90.5551 15.2554C90.5551 15.9099 90.3461 16.427 89.928 16.8066C89.5099 17.1797 88.9059 17.3662 88.1162 17.3662H86.8618ZM87.9967 16.4532C88.9325 16.4532 89.4004 16.0539 89.4004 15.2554C89.4004 14.8627 89.2875 14.5649 89.0619 14.362C88.8429 14.1526 88.4878 14.0479 87.9967 14.0479H86.8618V16.4532H87.9967Z" fill="white"/>
<path d="M95.2436 20.0563L93.4915 17.2877H92.6852V20.0563H91.5503V13.125H94.0291C94.8321 13.125 95.4394 13.3181 95.8509 13.7042C96.269 14.0904 96.478 14.6009 96.478 15.2358C96.478 15.779 96.3221 16.2241 96.0102 16.571C95.7049 16.9179 95.2602 17.1404 94.6762 17.2386L96.5179 20.0563H95.2436ZM92.6852 16.4925H93.9395C94.8554 16.4925 95.3133 16.0932 95.3133 15.2947C95.3133 14.9151 95.2005 14.6206 94.9748 14.4111C94.7558 14.1951 94.4107 14.0871 93.9395 14.0871H92.6852V16.4925Z" fill="white"/>
<path d="M98.6349 14.0282V16.1292H101.223V16.9932H98.6349V19.1432H101.522V20.0563H97.5V13.125H101.522V14.0282H98.6349Z" fill="white"/>
<path d="M109.91 13.233V20.0563H108.766V14.9413L106.765 20.0563H105.769L103.758 14.9413V20.0563H102.623V13.233H103.997L106.287 18.6818L108.537 13.233H109.91Z" fill="white"/>
<path d="M112.411 13.125V20.0563H111.276V13.125H112.411Z" fill="white"/>
<path d="M114.869 13.125V17.2386C114.869 17.8538 115.005 18.312 115.277 18.6131C115.556 18.9142 115.944 19.0647 116.442 19.0647C116.933 19.0647 117.315 18.9142 117.587 18.6131C117.866 18.312 118.005 17.8538 118.005 17.2386V13.125H119.14V17.2386C119.14 18.1876 118.891 18.9076 118.393 19.3985C117.895 19.8828 117.238 20.125 116.422 20.125C115.612 20.125 114.962 19.8828 114.471 19.3985C113.98 18.9076 113.734 18.1876 113.734 17.2386V13.125H114.869Z" fill="white"/>
<path d="M127.75 13.233V20.0563H126.605V14.9413L124.604 20.0563H123.609L121.598 14.9413V20.0563H120.463V13.233H121.837L124.126 18.6818L126.376 13.233H127.75Z" fill="white"/>
<path fill-rule="evenodd" clip-rule="evenodd" d="M65.7738 15.8036H73.1489C73.2387 15.3201 73.2686 14.8267 73.2378 14.3353C73.155 13.221 72.784 12.2291 72.0466 11.4043C71.2325 10.4928 70.2099 10.0219 69.0233 9.91849C67.5898 9.79441 66.325 10.2176 65.274 11.2349C64.0621 12.4065 63.5485 13.8772 63.7018 15.5809C63.8398 17.147 64.5213 18.4276 65.7792 19.3025C67.5867 20.5617 69.4832 20.5354 71.3919 19.5356C71.9256 19.2614 72.3922 18.8648 72.7564 18.3759L71.5629 16.9347C70.6675 17.8756 69.6319 18.3727 68.3517 18.2439C67.208 18.1293 66.1824 17.2759 65.8505 16.1361C65.8355 16.0781 65.8225 16.0191 65.8089 15.9573C65.798 15.9082 65.7867 15.8572 65.7738 15.8036ZM68.6875 11.7622C70.0374 11.8155 70.922 12.8249 71.1305 14.018H65.8014C66.1042 12.7406 67.1046 11.7002 68.6875 11.7622Z" fill="white"/>
<path d="M58.519 6.96387V13.5919L58.5512 13.6078C58.6547 13.4885 58.759 13.3692 58.8579 13.2499C59.7742 12.1596 60.691 11.07 61.6083 9.98079C61.6545 9.92495 61.7194 9.88942 61.79 9.88137C62.6117 9.87421 63.4335 9.8758 64.2552 9.8758C64.2744 9.8758 64.2935 9.87978 64.3457 9.88535C62.9827 11.5087 61.6351 13.1131 60.2783 14.7301L64.7527 20.1062C64.6853 20.1109 64.6439 20.1173 64.5994 20.1173C63.8068 20.1173 63.0149 20.1173 62.2231 20.1125C62.1431 20.1078 62.0679 20.072 62.0123 20.0123C60.888 18.6628 59.7637 17.3106 58.6394 15.9558C58.611 15.9208 58.5796 15.889 58.5244 15.8277V20.103H56.4846C56.4846 20.0545 56.4754 20.0012 56.4754 19.9439C56.4754 15.9823 56.4754 12.0204 56.4754 8.05833C56.4652 7.96133 56.5233 7.87063 56.6134 7.84278C57.2044 7.56996 57.7916 7.286 58.3765 7.01239C58.4148 7.00205 58.4585 6.98614 58.519 6.96387Z" fill="white"/>
<path fill-rule="evenodd" clip-rule="evenodd" d="M45.7544 17.358C46.074 16.6516 46.1982 15.8944 46.2319 15.1149C46.2232 15.0029 46.2163 14.8904 46.2094 14.778C46.1949 14.5433 46.1805 14.3085 46.1499 14.0762C45.982 12.8083 45.46 11.7353 44.4543 10.9646C42.7786 9.68161 40.9756 9.52333 39.116 10.4547C37.9309 11.0497 37.1214 12.0304 36.781 13.3826C36.5334 14.3696 36.5174 15.4039 36.7343 16.3987C36.9136 17.2498 37.2709 18.0094 37.8795 18.6179C39.2731 20.0122 40.9312 20.429 42.7816 19.9143C44.1308 19.5397 45.1518 18.6886 45.7544 17.358ZM44.2372 14.8019C44.2416 14.866 44.246 14.93 44.2519 14.994C44.2381 15.6598 44.1017 16.2881 43.7322 16.8417C43.0124 17.9251 41.6862 18.3729 40.4291 17.9171C39.4095 17.5481 38.8109 16.771 38.6154 15.6765C38.4575 14.7944 38.5625 13.9449 39.0577 13.1861C39.7591 12.1131 41.0691 11.6637 42.3171 12.0909C43.3857 12.4583 43.9928 13.2601 44.1952 14.3975C44.2186 14.5323 44.2279 14.6671 44.2372 14.8019Z" fill="white"/>
<path d="M28.2791 20.1049V6.66992H30.2959V17.9908H36.3149V20.1049H28.2791Z" fill="white"/>
<path d="M55.3816 18.5503C54.8381 19.1459 54.161 19.5926 53.4108 19.8508C51.4806 20.5173 49.3311 19.9113 48.028 18.3244C47.483 17.6611 47.1955 16.876 47.0682 16.025C46.9203 15.0331 46.9556 14.05 47.2676 13.0923C47.7574 11.5891 48.7838 10.6266 50.2081 10.1494C52.1245 9.51308 53.8492 9.91555 55.321 11.3695C55.34 11.39 55.3579 11.4115 55.3747 11.434C55.216 11.5891 55.0635 11.7402 54.9094 11.8897C54.6465 12.1466 54.3805 12.3996 54.1206 12.6597C54.0982 12.6921 54.0633 12.7128 54.025 12.7163C53.9867 12.7198 53.9488 12.7058 53.9213 12.6779C53.3663 12.297 52.7715 12.0265 52.1007 11.9422C50.7208 11.7565 49.4234 12.6658 49.0743 14.0635C48.8329 15.0267 48.921 15.9637 49.4576 16.8108C50.1659 17.9331 51.4737 18.3682 52.7722 17.9093C53.1701 17.7685 53.5388 17.537 53.9175 17.339C53.9941 17.3 54.0378 17.2745 54.1099 17.3437C54.5238 17.7462 54.9462 18.1407 55.3816 18.5503Z" fill="white"/>
<path d="M76.3692 20.1164H74.2826C74.2542 20.1164 74.2251 20.1164 74.1868 20.1108V10.1541H76.2565V10.9137C77.2921 9.95446 78.5155 9.82719 79.8026 9.88764V12.1943C79.4906 12.1657 79.174 12.1147 78.8574 12.1147C77.5734 12.1052 76.6344 12.9404 76.4305 14.2623C76.3929 14.5104 76.3737 14.7612 76.373 15.0124C76.3676 16.6501 76.373 18.287 76.373 19.9247L76.3692 20.1164Z" fill="white"/>
<path fill-rule="evenodd" clip-rule="evenodd" d="M23.6468 2.31446C23.6468 1.82768 23.3977 1.496 22.9469 1.38226C21.316 0.953958 19.6616 0.628839 17.9927 0.408695C16.7907 0.259956 15.5811 0.135875 14.3722 0.0555399C13.6482 0.00766685 12.9215 0.0062065 12.1951 0.00474701C11.9802 0.00431509 11.7653 0.00388324 11.5505 0.00224851C10.0727 -0.014256 8.59524 0.060111 7.12592 0.224959L7.01376 0.238367L7.01375 0.238367C6.25316 0.329271 5.49277 0.42015 4.73655 0.539934C3.38971 0.753895 2.05513 1.03626 0.732047 1.37669C0.247582 1.50157 0.00764893 1.80859 0.00764893 2.32957V8.64818H0.00304958C0.00304958 9.18744 0.00228708 9.72658 0.00152463 10.2657C-0.000469272 11.6755 -0.00246281 13.0851 0.00918205 14.4959C0.00989615 15.1927 0.0505958 15.8889 0.131065 16.5806C0.321938 18.1149 0.946684 19.4608 1.90028 20.6419C2.9359 21.9193 4.11794 23.0376 5.36896 24.0748C7.03891 25.4507 8.82921 26.6616 10.7165 27.6915C11.4646 28.1019 12.2067 28.1075 12.9464 27.6803C13.0757 27.6058 13.2052 27.5316 13.3347 27.4575L13.3351 27.4573L13.3359 27.4568L13.3366 27.4564L13.3368 27.4563C13.8118 27.1843 14.287 26.9122 14.7509 26.6201C17.0406 25.1765 19.1571 23.5021 21.0167 21.4914C21.7296 20.7215 22.3636 19.8927 22.8273 18.9318C23.4406 17.6592 23.6361 16.2895 23.6407 14.8904C23.6513 11.8233 23.6497 8.75575 23.648 5.6884V5.68832V5.68824V5.68817C23.6474 4.56356 23.6468 3.43898 23.6468 2.31446ZM4.11334 16.9179H2.77876V5.83487H4.11334V16.9179ZM5.62423 14.5842H6.95957V8.16855H5.62423V14.5842ZM9.77054 15.751H8.4352V7.00171H9.77054V15.751ZM11.2462 18.6677H12.5808V4.085H11.2462V18.6677Z" fill="white"/>
</svg>
