<svg width="152" height="32" viewBox="0 0 152 32" fill="none" xmlns="http://www.w3.org/2000/svg">
<path d="M103.35 19.8471V22.9215H102V15H104.843C105.806 15 106.529 15.2169 107.01 15.6508C107.5 16.0846 107.745 16.6793 107.745 17.4348C107.745 18.1828 107.496 18.7737 106.999 19.2076C106.501 19.6339 105.782 19.8471 104.843 19.8471H103.35ZM104.701 18.8036C105.814 18.8036 106.371 18.3474 106.371 17.4348C106.371 16.986 106.236 16.6456 105.968 16.4137C105.707 16.1744 105.285 16.0547 104.701 16.0547H103.35V18.8036H104.701Z" fill="black"/>
<path d="M113.323 22.9215L111.238 19.7574H110.279V22.9215H108.929V15H111.878C112.834 15 113.556 15.2207 114.046 15.662C114.543 16.1033 114.792 16.6868 114.792 17.4123C114.792 18.0332 114.606 18.5418 114.235 18.9383C113.872 19.3347 113.343 19.5891 112.648 19.7013L114.839 22.9215H113.323ZM110.279 18.8485H111.772C112.861 18.8485 113.406 18.3922 113.406 17.4797C113.406 17.0458 113.272 16.7092 113.003 16.4698C112.743 16.223 112.332 16.0996 111.772 16.0996H110.279V18.8485Z" fill="black"/>
<path d="M117.358 16.0323V18.4334H120.438V19.4208H117.358V21.878H120.793V22.9215H116.008V15H120.793V16.0323H117.358Z" fill="black"/>
<path d="M130.774 15.1234V22.9215H129.412V17.0757L127.031 22.9215H125.847L123.454 17.0757V22.9215H122.104V15.1234H123.738L126.463 21.3506L129.14 15.1234H130.774Z" fill="black"/>
<path d="M133.749 15V22.9215H132.399V15H133.749Z" fill="black"/>
<path d="M136.674 15V19.7013C136.674 20.4044 136.836 20.928 137.16 21.2721C137.491 21.6162 137.953 21.7882 138.545 21.7882C139.13 21.7882 139.584 21.6162 139.908 21.2721C140.239 20.928 140.405 20.4044 140.405 19.7013V15H141.755V19.7013C141.755 20.7859 141.459 21.6087 140.867 22.1697C140.275 22.7232 139.493 23 138.522 23C137.558 23 136.785 22.7232 136.2 22.1697C135.616 21.6087 135.324 20.7859 135.324 19.7013V15H136.674Z" fill="black"/>
<path d="M152 15.1234V22.9215H150.638V17.0757L148.257 22.9215H147.073L144.68 17.0757V22.9215H143.33V15.1234H144.964L147.688 21.3506L150.365 15.1234H152Z" fill="black"/>
<path fill-rule="evenodd" clip-rule="evenodd" d="M78.2592 18.0614H87.0343C87.1412 17.5088 87.1767 16.9449 87.1401 16.3834C87.0416 15.1098 86.6001 13.9763 85.7227 13.0336C84.7541 11.9919 83.5374 11.4537 82.1255 11.3356C80.4199 11.1938 78.915 11.6774 77.6646 12.84C76.2226 14.179 75.6115 15.8598 75.7939 17.8069C75.9581 19.5967 76.7689 21.0603 78.2656 22.0602C80.4163 23.4992 82.6727 23.4692 84.9438 22.3265C85.5788 22.0132 86.134 21.56 86.5673 21.0012L85.1472 19.354C84.0819 20.4294 82.8497 20.9975 81.3265 20.8503C79.9657 20.7194 78.7454 19.744 78.3504 18.4414C78.3327 18.3751 78.3172 18.3077 78.3009 18.2371C78.288 18.1809 78.2746 18.1227 78.2592 18.0614ZM81.726 13.4427C83.3322 13.5036 84.3847 14.6571 84.6328 16.0207H78.2921C78.6523 14.5608 79.8426 13.3718 81.726 13.4427Z" fill="#268334"/>
<path d="M69.6274 7.9585V15.5334L69.6657 15.5515C69.7889 15.4152 69.9129 15.2788 70.0306 15.1425C71.1208 13.8965 72.2116 12.6512 73.3031 11.4064C73.3581 11.3426 73.4353 11.302 73.5192 11.2928C74.497 11.2846 75.4747 11.2864 76.4524 11.2864C76.4752 11.2864 76.498 11.291 76.5601 11.2973C74.9384 13.1526 73.335 14.9861 71.7206 16.8342L77.0444 22.9783C76.9641 22.9837 76.9149 22.991 76.862 22.991C75.9189 22.991 74.9767 22.991 74.0345 22.9855C73.9395 22.9802 73.8499 22.9393 73.7837 22.871C72.446 21.3287 71.1083 19.7833 69.7706 18.235C69.7369 18.195 69.6995 18.1586 69.6338 18.0886V22.9746H67.2068C67.2068 22.9192 67.1958 22.8583 67.1958 22.7928C67.1958 18.2653 67.1958 13.7374 67.1958 9.20931C67.1837 9.09846 67.2528 8.99479 67.36 8.96296C68.0632 8.65117 68.7619 8.32665 69.4578 8.01395C69.5034 8.00213 69.5554 7.98395 69.6274 7.9585Z" fill="#268334"/>
<path fill-rule="evenodd" clip-rule="evenodd" d="M54.4396 19.8372C54.82 19.03 54.9677 18.1646 55.0079 17.2738C54.9975 17.1457 54.9893 17.0172 54.9811 16.8887C54.9639 16.6205 54.9467 16.3521 54.9103 16.0866C54.7105 14.6376 54.0894 13.4114 52.8928 12.5305C50.899 11.0643 48.7538 10.8834 46.5411 11.9478C45.1311 12.6278 44.1679 13.7486 43.763 15.294C43.4683 16.422 43.4492 17.604 43.7073 18.741C43.9207 19.7136 44.3458 20.5817 45.0699 21.2771C46.7281 22.8706 48.7009 23.347 50.9026 22.7588C52.5079 22.3307 53.7228 21.358 54.4396 19.8372ZM52.6344 16.9161C52.6397 16.9893 52.6449 17.0624 52.652 17.1356C52.6356 17.8965 52.4732 18.6146 52.0336 19.2473C51.1772 20.4854 49.5993 20.9972 48.1035 20.4763C46.8904 20.0545 46.1781 19.1664 45.9455 17.9156C45.7576 16.9075 45.8826 15.9366 46.4718 15.0694C47.3063 13.8432 48.8651 13.3296 50.3499 13.8177C51.6213 14.2377 52.3437 15.154 52.5845 16.4539C52.6123 16.6079 52.6234 16.762 52.6344 16.9161Z" fill="#268334"/>
<path d="M33.6472 22.9773V7.62305H36.0468V20.5611H43.2084V22.9773H33.6472Z" fill="#268334"/>
<path d="M65.8943 21.2009C65.2477 21.8815 64.4421 22.3921 63.5494 22.6871C61.2528 23.4489 58.6954 22.7562 57.1449 20.9427C56.4964 20.1846 56.1543 19.2874 56.0029 18.3147C55.8269 17.1812 55.8689 16.0576 56.2401 14.9632C56.8229 13.2451 58.0442 12.1452 59.7388 11.5998C62.019 10.8726 64.0711 11.3325 65.8223 12.9942C65.8449 13.0176 65.8662 13.0422 65.8861 13.0679C65.6973 13.2451 65.5158 13.4178 65.3325 13.5887C65.0197 13.8823 64.7032 14.1714 64.394 14.4687C64.3674 14.5057 64.3258 14.5294 64.2802 14.5334C64.2347 14.5374 64.1896 14.5214 64.1568 14.4896C63.4965 14.0541 62.7887 13.7451 61.9907 13.6487C60.3488 13.4365 58.8052 14.4757 58.3898 16.0731C58.1025 17.1739 58.2074 18.2447 58.8459 19.2128C59.6886 20.4955 61.2446 20.9927 62.7897 20.4682C63.263 20.3073 63.7017 20.0428 64.1523 19.8164C64.2435 19.7719 64.2955 19.7428 64.3812 19.8219C64.8737 20.2819 65.3763 20.7327 65.8943 21.2009Z" fill="#268334"/>
<path d="M90.8659 22.9901H88.3832C88.3495 22.9901 88.3148 22.9901 88.2692 22.9837V11.6046H90.7318V12.4727C91.964 11.3765 93.4197 11.231 94.951 11.3001V13.9363C94.5798 13.9035 94.2032 13.8454 93.8265 13.8454C92.2988 13.8344 91.1815 14.7889 90.9389 16.2997C90.8942 16.5833 90.8713 16.8699 90.8704 17.1569C90.8641 19.0286 90.8704 20.8994 90.8704 22.771L90.8659 22.9901Z" fill="#268334"/>
<path fill-rule="evenodd" clip-rule="evenodd" d="M28.1355 2.64509C28.1355 2.08877 27.8391 1.70971 27.3028 1.57972C25.3623 1.09024 23.3938 0.718674 21.4081 0.467079C19.978 0.297093 18.5387 0.155285 17.1004 0.0634741C16.2389 0.00876211 15.3743 0.00709314 14.5101 0.00542516C14.2543 0.00493153 13.9986 0.00443799 13.7431 0.00256973C11.9847 -0.0162926 10.2268 0.0686983 8.47859 0.257096L8.34514 0.272419L8.34513 0.27242L8.34512 0.272421L8.34511 0.272422C7.44015 0.376311 6.53542 0.480173 5.63566 0.617068C4.03315 0.861595 2.44524 1.1843 0.871007 1.57336C0.294579 1.71607 0.00910088 2.06696 0.00910088 2.66237V9.88363H0.00362846C0.00362846 10.4999 0.00272122 11.1161 0.00181404 11.7322C-0.000558351 13.3434 -0.00293031 14.9544 0.010925 16.5668C0.0117747 17.3631 0.0602001 18.1587 0.155944 18.9493C0.38305 20.7028 1.12639 22.2409 2.261 23.5908C3.49321 25.0506 4.89962 26.3287 6.38812 27.5141C8.37506 29.0865 10.5052 30.4703 12.7507 31.6474C13.6409 32.1165 14.5238 32.1228 15.4039 31.6347C15.5585 31.5491 15.7134 31.4639 15.8682 31.3787L15.8684 31.3787C16.4336 31.0678 16.999 30.7569 17.5509 30.423C20.2753 28.7731 22.7935 26.8596 25.0062 24.5616C25.8544 23.6817 26.6087 22.7345 27.1605 21.6364C27.8902 20.1819 28.1228 18.6166 28.1282 17.0176C28.1409 13.5123 28.1389 10.0065 28.137 6.50086V6.50077V6.50068V6.50058C28.1362 5.21538 28.1355 3.9302 28.1355 2.64509ZM4.89415 19.3347H3.30624V6.66842H4.89415V19.3347ZM6.69184 16.6677H8.28067V9.33549H6.69184V16.6677ZM11.6252 18.0012H10.0364V8.00196H11.6252V18.0012ZM13.381 21.3346H14.9689V4.66857H13.381V21.3346Z" fill="#268334"/>
</svg>
