<svg width="24" height="24" viewBox="0 0 24 24" fill="none" xmlns="http://www.w3.org/2000/svg">
<path d="M3 4.75275V17.7465C2.99988 17.8627 3.02674 17.9773 3.07848 18.0813C3.13021 18.1853 3.20541 18.2759 3.29812 18.3459C3.39084 18.4159 3.49855 18.4634 3.61276 18.4846C3.72697 18.5059 3.84456 18.5003 3.95625 18.4684L20.4562 13.659C20.613 13.6141 20.7509 13.5194 20.8491 13.3892C20.9472 13.2589 21.0002 13.1002 21 12.9371V9.56212C21.0002 9.39904 20.9472 9.24035 20.8491 9.11008C20.7509 8.97982 20.613 8.88509 20.4562 8.84025L3.95625 4.03087C3.84456 3.99892 3.72697 3.99336 3.61276 4.01462C3.49855 4.03587 3.39084 4.08337 3.29812 4.15336C3.20541 4.22336 3.13021 4.31393 3.07848 4.41795C3.02674 4.52196 2.99988 4.63657 3 4.75275Z" stroke="white" stroke-width="1.5" stroke-linecap="round" stroke-linejoin="round"/>
<path d="M17.25 14.5971V18.0002C17.25 18.1991 17.171 18.3899 17.0303 18.5305C16.8897 18.6712 16.6989 18.7502 16.5 18.7502H13.5C13.3011 18.7502 13.1103 18.6712 12.9697 18.5305C12.829 18.3899 12.75 18.1991 12.75 18.0002V6.59082" stroke="white" stroke-width="1.5" stroke-linecap="round" stroke-linejoin="round"/>
</svg>
