<svg width="24" height="24" viewBox="0 0 24 24" fill="none" xmlns="http://www.w3.org/2000/svg">
<path d="M5.26879 9.74986C5.26754 8.86072 5.44222 7.98011 5.78275 7.15876C6.12329 6.33741 6.62296 5.59155 7.25299 4.96414C7.88302 4.33673 8.63095 3.84016 9.45371 3.50304C10.2765 3.16592 11.1578 2.99491 12.0469 2.99986C15.7594 3.02799 18.7313 6.11236 18.7313 9.83424V10.4999C18.7313 13.8561 19.4344 15.8061 20.0532 16.8749C20.1189 16.9887 20.1535 17.1178 20.1537 17.2492C20.1538 17.3806 20.1193 17.5098 20.0538 17.6237C19.9883 17.7377 19.894 17.8324 19.7804 17.8984C19.6667 17.9644 19.5377 17.9994 19.4063 17.9999H4.59379C4.46237 17.9994 4.33337 17.9644 4.21972 17.8984C4.10607 17.8324 4.01177 17.7377 3.94626 17.6237C3.88074 17.5098 3.84632 17.3806 3.84644 17.2492C3.84655 17.1178 3.8812 16.9887 3.94692 16.8749C4.56567 15.8061 5.26879 13.8561 5.26879 10.4999V9.74986Z" stroke="currentColor" stroke-width="2" stroke-linecap="round" stroke-linejoin="round"/>
<path d="M9 18V18.75C9 19.5456 9.31607 20.3087 9.87868 20.8713C10.4413 21.4339 11.2044 21.75 12 21.75C12.7956 21.75 13.5587 21.4339 14.1213 20.8713C14.6839 20.3087 15 19.5456 15 18.75V18" stroke="currentColor" stroke-width="2" stroke-linecap="round" stroke-linejoin="round"/>
</svg>
