<svg width="24" height="24" viewBox="0 0 24 24" fill="none" xmlns="http://www.w3.org/2000/svg">
<path d="M9.74997 18C9.55119 17.9973 9.36059 17.9204 9.2156 17.7843L3.9656 12.5343C3.846 12.3886 3.78488 12.2036 3.79413 12.0153C3.80338 11.827 3.88233 11.6489 4.01563 11.5156C4.14893 11.3823 4.32705 11.3034 4.51534 11.2941C4.70363 11.2849 4.88862 11.346 5.03435 11.4656L9.74997 16.1906L19.7156 6.2156C19.8613 6.096 20.0463 6.03488 20.2346 6.04413C20.4229 6.05338 20.601 6.13233 20.7343 6.26563C20.8676 6.39893 20.9466 6.57705 20.9558 6.76534C20.9651 6.95363 20.9039 7.13862 20.7843 7.28435L10.2843 17.7843C10.1394 17.9204 9.94876 17.9973 9.74997 18Z" fill="currentColor"/>
</svg>
