<svg width="38" height="31" viewBox="0 0 38 31" fill="none" xmlns="http://www.w3.org/2000/svg">
<path d="M34.1733 30.4C35.2412 30.4 36.146 30.0285 36.8876 29.2856C37.6292 28.5427 38 27.6364 38 26.5666V7.57771C38 6.50792 37.6292 5.60156 36.8876 4.85865C36.146 4.11574 35.2412 3.74428 34.1733 3.74428H19.0445L15.2178 0H3.8267C2.9961 0 2.31382 0.178299 1.77986 0.534897L0.622951 1.69384C0.20765 2.22874 0 2.91222 0 3.74428V26.5666C0 27.3986 0.20765 28.1118 0.622951 28.7062C0.860265 28.9439 0.978923 29.1222 0.978923 29.2411C1.92818 30.0137 2.87744 30.4 3.8267 30.4H34.1733Z" fill="#C1D9FF"/>
<path d="M22.307 23.8824C20.6837 23.8824 19.0599 23.8824 17.4356 23.8824C16.8493 23.8824 16.4982 23.5353 16.5176 22.9504C16.5205 22.6538 16.5533 22.3582 16.6155 22.0681C17.1242 19.9423 18.4593 18.6398 20.5983 18.1738C20.845 18.122 21.0965 18.0959 21.3486 18.0962C22.0732 18.0915 22.801 18.0636 23.5233 18.1218C25.3609 18.2701 26.7077 19.1975 27.576 20.8107C27.9277 21.482 28.1141 22.2275 28.1197 22.9854C28.1329 23.5151 27.7702 23.8824 27.2242 23.8848C26.3372 23.8894 25.451 23.8848 24.5648 23.8848L22.307 23.8824Z" fill="#7DABF1"/>
<path d="M22.314 17.2613C21.4318 17.2609 20.5861 16.9089 19.9641 16.2833C19.3421 15.6577 18.9951 14.81 18.9999 13.9278C19.0022 12.1267 20.5012 10.6447 22.3248 10.6401C24.1244 10.6354 25.642 12.1531 25.6327 13.948C25.625 15.7768 24.1428 17.2566 22.314 17.2613Z" fill="#7DABF1"/>
<path d="M14.8586 17.2605C13.0365 17.2605 11.5414 15.7739 11.5437 13.9681C11.5429 13.0827 11.8953 12.2334 12.5228 11.6087C13.1503 10.9839 14.0011 10.6353 14.8865 10.6401C16.6791 10.6447 18.1905 12.1608 18.1758 13.9472C18.1711 15.7766 16.688 17.2579 14.8586 17.2605Z" fill="#7DABF1"/>
<path d="M14.9899 23.8841H12.1255H10.8447C10.2125 23.8809 9.88008 23.547 9.88008 22.9117C9.87154 21.1618 10.5636 19.7762 12.0369 18.8053C12.74 18.349 13.5576 18.1005 14.3957 18.0885C15.139 18.0659 15.883 18.0644 16.6007 18.309C16.659 18.3285 16.7164 18.3525 16.798 18.3867C16.0796 19.0955 15.5382 19.9634 15.2174 20.9202C14.9029 21.8756 14.7227 22.8495 14.9899 23.8841Z" fill="#7DABF1"/>
</svg>
