<svg width="72" height="72" viewBox="0 0 38 31" fill="none" xmlns="http://www.w3.org/2000/svg">
<path d="M34.1733 30.4C35.2412 30.4 36.146 30.0285 36.8876 29.2856C37.6292 28.5427 38 27.6364 38 26.5666V7.57771C38 6.50792 37.6292 5.60156 36.8876 4.85865C36.146 4.11574 35.2412 3.74428 34.1733 3.74428H19.0445L15.2178 0H3.8267C2.9961 0 2.31382 0.178299 1.77986 0.534897L0.622951 1.69384C0.20765 2.22874 0 2.91222 0 3.74428V26.5666C0 27.3986 0.20765 28.1118 0.622951 28.7062C0.860265 28.9439 0.978923 29.1222 0.978923 29.2411C1.92818 30.0137 2.87744 30.4 3.8267 30.4H34.1733Z" fill="#C1D9FF"/>
<circle cx="19.5" cy="17.5" r="7.5" fill="#7DABF1"/>
<path fill-rule="evenodd" clip-rule="evenodd" d="M19.5 13.125C18.9822 13.125 18.5625 13.5447 18.5625 14.0625V16.5625H16.0625C15.5447 16.5625 15.125 16.9822 15.125 17.5C15.125 18.0178 15.5447 18.4375 16.0625 18.4375H18.5625V20.9375C18.5625 21.4553 18.9822 21.875 19.5 21.875C20.0178 21.875 20.4375 21.4553 20.4375 20.9375V18.4375H22.9375C23.4553 18.4375 23.875 18.0178 23.875 17.5C23.875 16.9822 23.4553 16.5625 22.9375 16.5625H20.4375V14.0625C20.4375 13.5447 20.0178 13.125 19.5 13.125Z" fill="#C1D9FF"/>
</svg>
