<svg width="72" height="72" viewBox="0 0 38 31" fill="none" xmlns="http://www.w3.org/2000/svg">
<path d="M34.1733 30.4C35.2412 30.4 36.146 30.0285 36.8876 29.2856C37.6292 28.5427 38 27.6364 38 26.5666V7.57771C38 6.50792 37.6292 5.60156 36.8876 4.85865C36.146 4.11574 35.2412 3.74428 34.1733 3.74428H19.0445L15.2178 0H3.8267C2.9961 0 2.31382 0.178299 1.77986 0.534897L0.622951 1.69384C0.20765 2.22874 0 2.91222 0 3.74428V26.5666C0 27.3986 0.20765 28.1118 0.622951 28.7062C0.860265 28.9439 0.978923 29.1222 0.978923 29.2411C1.92818 30.0137 2.87744 30.4 3.8267 30.4H34.1733Z" fill="#C1D9FF"/>
</svg>
