<svg width="16" height="16" viewBox="0 0 16 16" fill="none" xmlns="http://www.w3.org/2000/svg">
<path fill-rule="evenodd" clip-rule="evenodd" d="M0 6.73652C0 3.02352 3.02354 0 6.73651 0C10.4495 0 13.473 3.02352 13.473 6.73652C13.473 8.36609 12.8945 9.86571 11.9271 11.0324L15.815 14.9203C16.0617 15.167 16.0617 15.5684 15.815 15.815C15.5684 16.0617 15.167 16.0617 14.9204 15.815L11.0324 11.9271C9.86572 12.8945 8.36609 13.473 6.73651 13.473C3.02354 13.473 0 10.4495 0 6.73652ZM12.2099 6.73652C12.2099 3.70616 9.76685 1.2631 6.73651 1.2631C3.70617 1.2631 1.2631 3.70616 1.2631 6.73652C1.2631 9.76687 3.70617 12.2099 6.73651 12.2099C9.76685 12.2099 12.2099 9.76687 12.2099 6.73652Z" fill="#ffffff"/>
</svg>
