<svg width="40" height="40" viewBox="0 0 40 40" fill="none" xmlns="http://www.w3.org/2000/svg">
<rect width="40" height="40" rx="8" fill="url(#paint0_linear_329_8366)"/>
<rect width="40" height="40" rx="8" fill="url(#paint1_linear_329_8366)"/>
<path d="M20 24.5C22.4853 24.5 24.5 22.4853 24.5 20C24.5 17.5147 22.4853 15.5 20 15.5C17.5147 15.5 15.5 17.5147 15.5 20C15.5 22.4853 17.5147 24.5 20 24.5Z" stroke="white" stroke-width="2" stroke-linecap="round" stroke-linejoin="round"/>
<path d="M26.5062 15.5656C26.7319 15.8888 26.9295 16.2306 27.0969 16.5875L29.525 17.9375C29.8282 19.2954 29.8314 20.7032 29.5344 22.0625L27.0969 23.4125C26.9295 23.7694 26.7319 24.1113 26.5062 24.4344L26.5531 27.2188C25.5241 28.1565 24.3061 28.8629 22.9812 29.2906L20.5906 27.8563C20.1974 27.8844 19.8026 27.8844 19.4094 27.8563L17.0281 29.2813C15.699 28.8614 14.4771 28.1576 13.4469 27.2188L13.4937 24.4438C13.2699 24.1161 13.0724 23.7713 12.9031 23.4125L10.475 22.0625C10.1718 20.7046 10.1686 19.2968 10.4656 17.9375L12.9031 16.5875C13.0704 16.2306 13.268 15.8888 13.4937 15.5656L13.4469 12.7813C14.4759 11.8435 15.6939 11.1371 17.0187 10.7094L19.4094 12.1438C19.8026 12.1156 20.1974 12.1156 20.5906 12.1438L22.9719 10.7188C24.301 11.1387 25.5229 11.8424 26.5531 12.7813L26.5062 15.5656Z" stroke="white" stroke-width="2" stroke-linecap="round" stroke-linejoin="round"/>
<defs>
<linearGradient id="paint0_linear_329_8366" x1="-20" y1="20" x2="20" y2="60" gradientUnits="userSpaceOnUse">
<stop stop-color="#70DFA9"/>
<stop offset="1" stop-color="#00A6AF"/>
</linearGradient>
<linearGradient id="paint1_linear_329_8366" x1="-20" y1="20" x2="20" y2="60" gradientUnits="userSpaceOnUse">
<stop stop-color="#676767"/>
<stop offset="1" stop-color="#1F222D"/>
</linearGradient>
</defs>
</svg>
