<svg width="40" height="40" viewBox="0 0 40 40" fill="none" xmlns="http://www.w3.org/2000/svg">
<rect width="40" height="40" rx="8" fill="url(#paint0_linear_475:5232)"/>
<path fill-rule="evenodd" clip-rule="evenodd" d="M16.1827 10H23.567C24.1458 10.0009 24.7006 10.2191 25.11 10.6069C25.5194 10.9946 25.7501 11.5204 25.7514 12.069V15.131H25.1246V12.6046H14.6285V27.104H25.1263V25.5006L25.7531 25.0122V27.931C25.7518 28.4793 25.5214 29.0048 25.1123 29.3926C24.7033 29.7803 24.1489 29.9987 23.5705 30H16.1861C15.6076 29.9996 15.0529 29.782 14.6432 29.3949C14.2335 29.0077 14.0023 28.4826 14 27.9342V12.069C14.0014 11.5207 14.2318 10.9952 14.6408 10.6074C15.0498 10.2197 15.6042 10.0013 16.1827 10V10ZM20.2509 18.4649C20.2568 18.3891 20.2928 18.3182 20.3515 18.2664C20.4103 18.2147 20.4876 18.1859 20.5678 18.1859C20.648 18.1859 20.7252 18.2147 20.784 18.2664C20.8428 18.3182 20.8787 18.3891 20.8846 18.4649V18.8524L21.2281 18.6375C21.2613 18.6075 21.301 18.5848 21.3444 18.5709C21.3879 18.5571 21.434 18.5524 21.4796 18.5572C21.5251 18.562 21.569 18.5762 21.6082 18.5988C21.6473 18.6214 21.6808 18.6519 21.7062 18.688C21.7317 18.7242 21.7484 18.7652 21.7554 18.8081C21.7623 18.8511 21.7593 18.8949 21.7464 18.9367C21.7336 18.9784 21.7113 19.0169 21.6811 19.0496C21.6509 19.0823 21.6135 19.1083 21.5715 19.1258L21.1353 19.4042L21.5733 19.6793C21.6328 19.7263 21.6721 19.7924 21.6836 19.8651C21.6951 19.9378 21.678 20.0119 21.6356 20.0734C21.5932 20.1349 21.5284 20.1795 21.4536 20.1987C21.3788 20.2179 21.2991 20.2103 21.2298 20.1774L20.8863 19.9626V20.3516C20.8804 20.4275 20.8445 20.4984 20.7857 20.5501C20.727 20.6019 20.6497 20.6306 20.5695 20.6306C20.4893 20.6306 20.412 20.6019 20.3533 20.5501C20.2945 20.4984 20.2585 20.4275 20.2527 20.3516V19.974L19.9092 20.1888C19.875 20.2142 19.8355 20.2326 19.7934 20.2428C19.7513 20.253 19.7074 20.2548 19.6645 20.2481C19.6216 20.2414 19.5806 20.2264 19.5442 20.2039C19.5077 20.1814 19.4766 20.152 19.4528 20.1176C19.4289 20.0831 19.4129 20.0443 19.4057 20.0037C19.3984 19.963 19.4002 19.9214 19.4108 19.8814C19.4214 19.8415 19.4407 19.804 19.4674 19.7715C19.494 19.7389 19.5275 19.712 19.5657 19.6923L20.0036 19.4156L19.5657 19.1389C19.529 19.1185 19.497 19.0912 19.4718 19.0587C19.4465 19.0263 19.4284 18.9893 19.4187 18.95C19.4089 18.9107 19.4077 18.87 19.4151 18.8303C19.4225 18.7905 19.4383 18.7526 19.4616 18.7188C19.4848 18.6851 19.5151 18.6561 19.5506 18.6338C19.586 18.6114 19.6259 18.5962 19.6677 18.5889C19.7096 18.5815 19.7526 18.5824 19.7941 18.5913C19.8356 18.6002 19.8748 18.617 19.9092 18.6407L20.2527 18.8556V18.4649H20.2509ZM26.902 18.4649C26.902 18.3855 26.9353 18.3093 26.9946 18.2531C27.0538 18.1969 27.1342 18.1654 27.218 18.1654C27.3018 18.1654 27.3822 18.1969 27.4414 18.2531C27.5007 18.3093 27.534 18.3855 27.534 18.4649V18.8524L27.8774 18.6375C27.9451 18.6092 28.0212 18.6044 28.0922 18.6241C28.1632 18.6437 28.2247 18.6865 28.2657 18.7448C28.3067 18.8032 28.3247 18.8734 28.3166 18.9431C28.3084 19.0128 28.2745 19.0775 28.2209 19.1258L27.783 19.4042L28.2209 19.6793C28.2607 19.6982 28.2959 19.7249 28.3241 19.7576C28.3523 19.7903 28.3729 19.8282 28.3846 19.869C28.3962 19.9098 28.3986 19.9524 28.3916 19.9942C28.3846 20.0359 28.3684 20.0757 28.344 20.1111C28.3197 20.1464 28.2877 20.1765 28.2502 20.1993C28.2127 20.2221 28.1705 20.2371 28.1264 20.2434C28.0824 20.2497 28.0374 20.247 27.9945 20.2357C27.9516 20.2243 27.9117 20.2045 27.8774 20.1774L27.534 19.9626V20.3516C27.534 20.4311 27.5007 20.5072 27.4414 20.5634C27.3822 20.6196 27.3018 20.6511 27.218 20.6511C27.1342 20.6511 27.0538 20.6196 26.9946 20.5634C26.9353 20.5072 26.902 20.4311 26.902 20.3516V19.974L26.5585 20.1888C26.5245 20.2168 26.4845 20.2375 26.4413 20.2497C26.3982 20.2618 26.3527 20.265 26.3081 20.2591C26.2635 20.2532 26.2207 20.2384 26.1826 20.2155C26.1446 20.1927 26.1121 20.1624 26.0874 20.1267C26.0627 20.091 26.0463 20.0507 26.0394 20.0085C26.0325 19.9663 26.0352 19.9232 26.0473 19.882C26.0594 19.8409 26.0806 19.8027 26.1095 19.77C26.1385 19.7373 26.1745 19.7108 26.2151 19.6923L26.653 19.4156L26.2151 19.1389C26.1752 19.12 26.14 19.0933 26.1118 19.0606C26.0836 19.0279 26.063 18.9899 26.0514 18.9491C26.0398 18.9084 26.0374 18.8657 26.0444 18.824C26.0513 18.7823 26.0676 18.7424 26.0919 18.7071C26.1163 18.6717 26.1483 18.6417 26.1858 18.6189C26.2233 18.596 26.2655 18.581 26.3095 18.5748C26.3536 18.5685 26.3986 18.5711 26.4415 18.5825C26.4844 18.5939 26.5243 18.6137 26.5585 18.6407L26.902 18.8556V18.4649ZM23.5773 18.4649C23.5773 18.3855 23.6106 18.3093 23.6699 18.2531C23.7291 18.1969 23.8095 18.1654 23.8933 18.1654C23.9771 18.1654 24.0575 18.1969 24.1167 18.2531C24.176 18.3093 24.2093 18.3855 24.2093 18.4649V18.8524L24.5528 18.6375C24.6202 18.6115 24.6951 18.6083 24.7647 18.6286C24.8343 18.6489 24.8944 18.6913 24.9348 18.7488C24.9752 18.8062 24.9934 18.8751 24.9864 18.9438C24.9793 19.0125 24.9475 19.0768 24.8962 19.1258L24.4583 19.4042L24.8962 19.6793C24.9361 19.6982 24.9713 19.7249 24.9995 19.7576C25.0277 19.7903 25.0483 19.8282 25.0599 19.869C25.0715 19.9098 25.0739 19.9524 25.0669 19.9942C25.06 20.0359 25.0437 20.0757 25.0194 20.1111C24.995 20.1464 24.963 20.1765 24.9255 20.1993C24.888 20.2221 24.8458 20.2371 24.8018 20.2434C24.7577 20.2497 24.7127 20.247 24.6698 20.2357C24.6269 20.2243 24.587 20.2045 24.5528 20.1774L24.2093 19.9626V20.3516C24.2093 20.4311 24.176 20.5072 24.1167 20.5634C24.0575 20.6196 23.9771 20.6511 23.8933 20.6511C23.8095 20.6511 23.7291 20.6196 23.6699 20.5634C23.6106 20.5072 23.5773 20.4311 23.5773 20.3516V19.974L23.2339 20.1888C23.1646 20.2244 23.0837 20.2341 23.0073 20.2158C22.9309 20.1976 22.8645 20.1528 22.8213 20.0903C22.778 20.0278 22.7612 19.9523 22.774 19.8785C22.7868 19.8048 22.8283 19.7384 22.8904 19.6923L23.3283 19.4156L22.8904 19.1389C22.8506 19.12 22.8154 19.0933 22.7872 19.0606C22.759 19.0279 22.7384 18.9899 22.7267 18.9491C22.7151 18.9084 22.7127 18.8657 22.7197 18.824C22.7267 18.7823 22.7429 18.7424 22.7673 18.7071C22.7916 18.6717 22.8236 18.6417 22.8611 18.6189C22.8986 18.596 22.9408 18.581 22.9849 18.5748C23.0289 18.5685 23.0739 18.5711 23.1168 18.5825C23.1597 18.5939 23.1996 18.6137 23.2339 18.6407L23.5773 18.8556V18.4649ZM18.5594 16.3666H29.1414C29.3697 16.37 29.5876 16.4582 29.7482 16.6122C29.9087 16.7662 29.9991 16.9738 30 17.1903V21.5969C30.0003 21.8169 29.9113 22.0285 29.7514 22.1879C29.5915 22.3473 29.3731 22.4423 29.1414 22.4532H25.4251C24.4755 23.5943 23.2373 24.2813 21.7742 24.6508C21.7167 24.6651 21.6562 24.6641 21.5993 24.6481C21.5424 24.632 21.4912 24.6014 21.4513 24.5597C21.423 24.5299 21.4013 24.4952 21.3872 24.4574C21.3732 24.4197 21.3672 24.3797 21.3696 24.3397C21.372 24.2997 21.3827 24.2606 21.4012 24.2246C21.4196 24.1886 21.4454 24.1564 21.4771 24.1299C21.6499 23.9875 21.8075 23.8294 21.9476 23.6578C22.2161 23.2794 22.4163 22.8613 22.5401 22.4206H18.5594C18.3294 22.4194 18.1091 22.3322 17.9465 22.178C17.7838 22.0238 17.6918 21.815 17.6905 21.5969V17.1903C17.6909 16.972 17.7826 16.7627 17.9455 16.6083C18.1083 16.4539 18.3291 16.367 18.5594 16.3666V16.3666ZM19.8766 27.7438C20.0532 27.7441 20.2257 27.794 20.3725 27.8871C20.5192 27.9802 20.6336 28.1123 20.7013 28.267C20.7689 28.4216 20.7868 28.5917 20.7526 28.756C20.7185 28.9202 20.6338 29.0712 20.5093 29.1899C20.3848 29.3086 20.226 29.3897 20.0529 29.423C19.8799 29.4564 19.7003 29.4404 19.5368 29.3772C19.3733 29.3139 19.2332 29.2062 19.1341 29.0676C19.0351 28.9291 18.9815 28.7658 18.9801 28.5984C18.9795 28.4864 19.0021 28.3754 19.0469 28.2717C19.0916 28.1681 19.1576 28.0738 19.2409 27.9944C19.3242 27.915 19.4232 27.8519 19.5323 27.8089C19.6414 27.7659 19.7584 27.7438 19.8766 27.7438V27.7438Z" fill="white"/>
<defs>
<linearGradient id="paint0_linear_475:5232" x1="-17.3772" y1="25.2456" x2="22.6228" y2="60" gradientUnits="userSpaceOnUse">
<stop stop-color="#80EC81"/>
<stop offset="1" stop-color="#2AC1AF"/>
</linearGradient>
</defs>
</svg>
