<svg width="40" height="40" viewBox="0 0 40 40" fill="none" xmlns="http://www.w3.org/2000/svg">
<rect width="40" height="40" rx="8" fill="url(#paint0_linear)"/>
<mask id="mask0" style="mask-type:alpha" maskUnits="userSpaceOnUse" x="0" y="0" width="40" height="40">
<rect width="40" height="40" rx="8" fill="white"/>
</mask>
<g mask="url(#mask0)">
</g>
<mask id="mask1" style="mask-type:alpha" maskUnits="userSpaceOnUse" x="5" y="5" width="29" height="30">
<rect x="5.14282" y="5.71436" width="28.5714" height="28.5714" fill="white"/>
</mask>
<g mask="url(#mask1)">
<path fill-rule="evenodd" clip-rule="evenodd" d="M28.1462 29.038C28.7046 29.038 29.1892 28.832 29.5998 28.42C30.0104 28.008 30.2157 27.5053 30.2157 26.912V14.2545C30.2157 13.6612 30.0104 13.1585 29.5998 12.7465C29.1892 12.3344 28.7046 12.1284 28.1462 12.1284H11.294C10.7356 12.1284 10.2511 12.3344 9.84043 12.7465C9.4298 13.1585 9.22449 13.6612 9.22449 14.2545V26.912C9.22449 27.5053 9.4298 28.008 9.84043 28.42C10.2511 28.832 10.7356 29.038 11.294 29.038H28.1462ZM28.1462 16.3805H11.294V14.2545H28.1462V16.3805ZM11.294 26.912H28.1462V20.5832H11.294V26.912Z" fill="white"/>
</g>
<defs>
<linearGradient id="paint0_linear" x1="-18.697" y1="20" x2="21.303" y2="57.394" gradientUnits="userSpaceOnUse">
<stop stop-color="#9BB3F3"/>
<stop offset="1" stop-color="#5677F7"/>
<stop offset="1" stop-color="#009FFF"/>
</linearGradient>
</defs>
</svg>
