<svg width="40" height="40" viewBox="0 0 40 40" fill="none" xmlns="http://www.w3.org/2000/svg">
<rect width="40" height="40" rx="8" fill="url(#paint0_linear_404_4437)"/>
<mask id="mask0_404_4437" style="mask-type:alpha" maskUnits="userSpaceOnUse" x="0" y="0" width="40" height="40">
<rect width="40" height="40" rx="8" fill="white"/>
</mask>
<g mask="url(#mask0_404_4437)">
<path d="M20 29C24.9706 29 29 24.9706 29 20C29 15.0294 24.9706 11 20 11C15.0294 11 11 15.0294 11 20C11 24.9706 15.0294 29 20 29Z" stroke="white" stroke-width="1.5" stroke-linecap="round" stroke-linejoin="round"/>
<path d="M20 23C22.0711 23 23.75 21.3211 23.75 19.25C23.75 17.1789 22.0711 15.5 20 15.5C17.9289 15.5 16.25 17.1789 16.25 19.25C16.25 21.3211 17.9289 23 20 23Z" stroke="white" stroke-width="1.5" stroke-linecap="round" stroke-linejoin="round"/>
<path d="M13.9813 26.6933C14.5456 25.5819 15.4067 24.6484 16.469 23.9963C17.5314 23.3442 18.7536 22.999 20.0001 22.999C21.2466 22.999 22.4688 23.3442 23.5311 23.9963C24.5935 24.6484 25.4545 25.5819 26.0188 26.6933" stroke="white" stroke-width="1.5" stroke-linecap="round" stroke-linejoin="round"/>
</g>
<defs>
<linearGradient id="paint0_linear_404_4437" x1="-20" y1="20" x2="20" y2="60" gradientUnits="userSpaceOnUse">
<stop stop-color="#676767"/>
<stop offset="1" stop-color="#1F222D"/>
</linearGradient>
</defs>
</svg>
