<svg width="40" height="40" viewBox="0 0 40 40" fill="none" xmlns="http://www.w3.org/2000/svg">
<rect width="40" height="40" rx="8" fill="url(#paint0_linear_404_4670)"/>
<mask id="mask0_404_4670" style="mask-type:alpha" maskUnits="userSpaceOnUse" x="0" y="0" width="40" height="40">
<rect width="40" height="40" rx="8" fill="white"/>
</mask>
<g mask="url(#mask0_404_4670)">
<path fill-rule="evenodd" clip-rule="evenodd" d="M13.42 15.249C11.711 16.0377 11 16.9762 11 17.75C11 18.5238 11.711 19.4623 13.42 20.251C15.0653 21.0104 17.3909 21.5 20 21.5C22.6091 21.5 24.9347 21.0104 26.58 20.251C28.289 19.4623 29 18.5238 29 17.75C29 16.9762 28.289 16.0377 26.58 15.249C24.9347 14.4896 22.6091 14 20 14C17.3909 14 15.0653 14.4896 13.42 15.249ZM12.7914 13.887C14.675 13.0177 17.2243 12.5 20 12.5C22.7757 12.5 25.325 13.0177 27.2086 13.887C29.0284 14.727 30.5 16.0385 30.5 17.75C30.5 19.4615 29.0284 20.773 27.2086 21.613C25.325 22.4823 22.7757 23 20 23C17.2243 23 14.675 22.4823 12.7914 21.613C10.9716 20.773 9.5 19.4615 9.5 17.75C9.5 16.0385 10.9716 14.727 12.7914 13.887Z" fill="white"/>
<path fill-rule="evenodd" clip-rule="evenodd" d="M20 21.5C20.4142 21.5 20.75 21.8358 20.75 22.25V26.75C20.75 27.1642 20.4142 27.5 20 27.5C19.5858 27.5 19.25 27.1642 19.25 26.75V22.25C19.25 21.8358 19.5858 21.5 20 21.5Z" fill="white"/>
<path fill-rule="evenodd" clip-rule="evenodd" d="M10.25 17C10.6642 17 11 17.3358 11 17.75V22.25C11 22.9386 11.6038 23.8696 13.2104 24.6729C14.7689 25.4522 17.0851 26 20 26C22.9149 26 25.2311 25.4522 26.7896 24.6729C28.3962 23.8696 29 22.9386 29 22.25V17.75C29 17.3358 29.3358 17 29.75 17C30.1642 17 30.5 17.3358 30.5 17.75V22.25C30.5 23.8114 29.2288 25.1304 27.4604 26.0146C25.6439 26.9228 23.0851 27.5 20 27.5C16.9149 27.5 14.3561 26.9228 12.5396 26.0146C10.7712 25.1304 9.5 23.8114 9.5 22.25V17.75C9.5 17.3358 9.83579 17 10.25 17Z" fill="white"/>
<path fill-rule="evenodd" clip-rule="evenodd" d="M26 20.5723C26.4142 20.5723 26.75 20.9081 26.75 21.3223V25.8223C26.75 26.2365 26.4142 26.5723 26 26.5723C25.5858 26.5723 25.25 26.2365 25.25 25.8223V21.3223C25.25 20.9081 25.5858 20.5723 26 20.5723Z" fill="white"/>
<path fill-rule="evenodd" clip-rule="evenodd" d="M14 20.5723C14.4142 20.5723 14.75 20.9081 14.75 21.3223V25.8223C14.75 26.2365 14.4142 26.5723 14 26.5723C13.5858 26.5723 13.25 26.2365 13.25 25.8223V21.3223C13.25 20.9081 13.5858 20.5723 14 20.5723Z" fill="white"/>
</g>
<defs>
<linearGradient id="paint0_linear_404_4670" x1="-20" y1="20" x2="20" y2="60" gradientUnits="userSpaceOnUse">
<stop stop-color="#676767"/>
<stop offset="1" stop-color="#1F222D"/>
</linearGradient>
</defs>
</svg>
