<svg width="40" height="40" viewBox="0 0 40 40" fill="none" xmlns="http://www.w3.org/2000/svg">
<rect width="40" height="40" rx="8" fill="url(#paint0_linear_329_8378)"/>
<rect width="40" height="40" rx="8" fill="url(#paint1_linear_329_8378)"/>
<mask id="mask0_329_8378" style="mask-type:alpha" maskUnits="userSpaceOnUse" x="0" y="0" width="40" height="40">
<rect width="40" height="40" rx="8" fill="white"/>
</mask>
<g mask="url(#mask0_329_8378)">
<path d="M20 20C24.5563 20 28.25 17.9853 28.25 15.5C28.25 13.0147 24.5563 11 20 11C15.4437 11 11.75 13.0147 11.75 15.5C11.75 17.9853 15.4437 20 20 20Z" stroke="white" stroke-width="2" stroke-linecap="round" stroke-linejoin="round"/>
<path d="M11.75 15.5V20C11.75 22.4844 15.4438 24.5 20 24.5C24.5562 24.5 28.25 22.4844 28.25 20V15.5" stroke="white" stroke-width="2" stroke-linecap="round" stroke-linejoin="round"/>
<path d="M11.75 20V24.5C11.75 26.9844 15.4438 29 20 29C24.5562 29 28.25 26.9844 28.25 24.5V20" stroke="white" stroke-width="2" stroke-linecap="round" stroke-linejoin="round"/>
</g>
<defs>
<linearGradient id="paint0_linear_329_8378" x1="-20" y1="20" x2="20" y2="60" gradientUnits="userSpaceOnUse">
<stop stop-color="#70DFA9"/>
<stop offset="1" stop-color="#00A6AF"/>
</linearGradient>
<linearGradient id="paint1_linear_329_8378" x1="-14.8982" y1="17.4491" x2="20" y2="57.4491" gradientUnits="userSpaceOnUse">
<stop stop-color="#EFC243"/>
<stop offset="1" stop-color="#F9B150"/>
</linearGradient>
</defs>
</svg>
