<svg width="40" height="40" viewBox="0 0 40 40" fill="none" xmlns="http://www.w3.org/2000/svg">
<rect width="40" height="40" rx="8" fill="url(#paint0_linear)"/>
<mask id="mask0" style="mask-type:alpha" maskUnits="userSpaceOnUse" x="0" y="0" width="40" height="40">
<rect width="40" height="40" rx="8" fill="white"/>
</mask>
<g mask="url(#mask0)">
</g>
<path d="M13.0526 17.9791H14.8842C15.4316 16.5685 16.5684 15.4527 17.9789 14.8843V13.0527C15.621 13.7475 13.7473 15.6212 13.0526 17.9791Z" fill="#48FF90"/>
<path d="M26.9474 22.021H25.1158C24.5684 23.4315 23.4316 24.5473 22.0421 25.0947V26.9473C24.379 26.2526 26.2526 24.3789 26.9474 22.021Z" fill="#48FF90"/>
<path d="M14.8842 22.021H13.0526C13.7473 24.3999 15.621 26.2526 17.9789 26.9473V25.1157C16.5684 24.5473 15.4526 23.4315 14.8842 22.021Z" fill="#48FF90"/>
<path d="M25.1157 17.9791H26.9473C26.2526 15.6212 24.3999 13.7475 22.021 13.0527V14.8843C23.4315 15.4527 24.5473 16.5685 25.1157 17.9791Z" fill="#48FF90"/>
<path d="M29.1368 19.1368H22.9474C22.6526 18.1263 21.8737 17.3474 20.8632 17.0526V10.8632C20.8632 10.3789 20.4842 10 20 10C19.5158 10 19.1368 10.3789 19.1368 10.8632V17.0526C18.1263 17.3474 17.3474 18.1263 17.0526 19.1368H10.8632C10.3789 19.1368 10 19.5158 10 20C10 20.4842 10.3789 20.8632 10.8632 20.8632H17.0526C17.3474 21.8737 18.1263 22.6526 19.1368 22.9474V29.1368C19.1368 29.6211 19.5158 30 20 30C20.4842 30 20.8632 29.6211 20.8632 29.1368V22.9474C21.8737 22.6526 22.6526 21.8737 22.9474 20.8632H29.1368C29.6211 20.8632 30 20.4842 30 20C30 19.5158 29.6211 19.1368 29.1368 19.1368Z" fill="#48FF90"/>
<path d="M10.8632 16.7368C11.3474 16.7368 11.7263 16.3579 11.7263 15.8737V13.1789C11.7263 12.3789 12.3789 11.7263 13.1789 11.7263H15.8526C16.3368 11.7263 16.7158 11.3474 16.7158 10.8632C16.7158 10.3789 16.3368 10 15.8526 10H13.1789C11.4316 10 10 11.4316 10 13.1789V15.8526C10 16.3368 10.3789 16.7368 10.8632 16.7368Z" fill="#48FF90"/>
<path d="M29.1369 23.2632C28.6527 23.2632 28.2737 23.6421 28.2737 24.1263V26.8C28.2737 27.6 27.6211 28.2527 26.8211 28.2527H24.1263C23.6421 28.2527 23.2632 28.6316 23.2632 29.1158C23.2632 29.6 23.6421 29.979 24.1263 29.979H26.8C28.5474 29.979 29.979 28.5474 29.979 26.8V24.1263C30 23.6632 29.6211 23.2632 29.1369 23.2632Z" fill="#48FF90"/>
<path d="M26.8211 10H24.1263C23.6421 10 23.2632 10.3789 23.2632 10.8632C23.2632 11.3474 23.6421 11.7263 24.1263 11.7263H26.8C27.6 11.7263 28.2527 12.3789 28.2527 13.1789V15.8526C28.2527 16.3368 28.6316 16.7158 29.1158 16.7158C29.6 16.7158 29.979 16.3368 29.979 15.8526V13.1789C30 11.4316 28.5684 10 26.8211 10Z" fill="#48FF90"/>
<path d="M15.8737 28.2527H13.1789C12.3789 28.2527 11.7263 27.6 11.7263 26.8V24.1263C11.7263 23.6421 11.3474 23.2632 10.8632 23.2632C10.3789 23.2632 10 23.6421 10 24.1263V26.8C10 28.5474 11.4316 29.979 13.1789 29.979H15.8526C16.3368 29.979 16.7158 29.6 16.7158 29.1158C16.7158 28.6316 16.3368 28.2527 15.8737 28.2527Z" fill="#48FF90"/>
<defs>
<linearGradient id="paint0_linear" x1="-16.1851" y1="18.0925" x2="20" y2="58.0925" gradientUnits="userSpaceOnUse">
<stop stop-color="#377D84"/>
<stop offset="1" stop-color="#324067"/>
</linearGradient>
</defs>
</svg>
