<svg width="40" height="40" viewBox="0 0 40 40" fill="none" xmlns="http://www.w3.org/2000/svg">
<rect width="40" height="40" rx="8" fill="url(#paint0_linear_329_8283)"/>
<mask id="mask0_329_8283" style="mask-type:alpha" maskUnits="userSpaceOnUse" x="0" y="0" width="40" height="40">
<rect width="40" height="40" rx="8" fill="white"/>
</mask>
<g mask="url(#mask0_329_8283)">
<path d="M9.5 19.25H30.5" stroke="white" stroke-width="2" stroke-linecap="round" stroke-linejoin="round"/>
<path d="M28.25 28.25H26C25.8011 28.25 25.6103 28.171 25.4697 28.0303C25.329 27.8897 25.25 27.6989 25.25 27.5V25.25H14.75V27.5C14.75 27.6989 14.671 27.8897 14.5303 28.0303C14.3897 28.171 14.1989 28.25 14 28.25H11.75C11.5511 28.25 11.3603 28.171 11.2197 28.0303C11.079 27.8897 11 27.6989 11 27.5V19.25L13.8031 12.95C13.8613 12.8167 13.957 12.7032 14.0785 12.6233C14.2 12.5434 14.3421 12.5006 14.4875 12.5H25.5125C25.6579 12.5006 25.8 12.5434 25.9215 12.6233C26.043 12.7032 26.1387 12.8167 26.1969 12.95L29 19.25V27.5C29 27.6989 28.921 27.8897 28.7803 28.0303C28.6397 28.171 28.4489 28.25 28.25 28.25Z" stroke="white" stroke-width="2" stroke-linecap="round" stroke-linejoin="round"/>
</g>
<defs>
<linearGradient id="paint0_linear_329_8283" x1="-20" y1="20" x2="20" y2="60" gradientUnits="userSpaceOnUse">
<stop stop-color="#70DFA9"/>
<stop offset="1" stop-color="#00A6AF"/>
</linearGradient>
</defs>
</svg>
