<svg width="40" height="40" viewBox="0 0 40 40" fill="none" xmlns="http://www.w3.org/2000/svg">
<rect width="40" height="40" rx="8" fill="url(#paint0_linear)"/>
<mask id="mask0" style="mask-type:alpha" maskUnits="userSpaceOnUse" x="0" y="0" width="40" height="40">
<rect width="40" height="40" rx="8" fill="white"/>
</mask>
<g mask="url(#mask0)">
<path d="M28.313 28C28.8852 28 29.3701 27.8045 29.7675 27.4135C30.1649 27.0225 30.3636 26.5455 30.3636 25.9824V15.9883C30.3636 15.4252 30.1649 14.9482 29.7675 14.5572C29.3701 14.1662 28.8852 13.9707 28.313 13.9707H20.2057L18.155 12H12.0507C11.6056 12 11.2399 12.0938 10.9538 12.2815L10.3338 12.8915C10.1113 13.173 10 13.5327 10 13.9707V25.9824C10 26.4203 10.1113 26.7957 10.3338 27.1085C10.461 27.2336 10.5246 27.3275 10.5246 27.39C11.0333 27.7967 11.542 28 12.0507 28H28.313Z" stroke="white" stroke-width="2"/>
</g>
<defs>
<linearGradient id="paint0_linear" x1="-15.9795" y1="17.4167" x2="18.8539" y2="54.69" gradientUnits="userSpaceOnUse">
<stop stop-color="#D79AFF"/>
<stop offset="1" stop-color="#9A8CF9"/>
<stop offset="1" stop-color="#7D64FD"/>
</linearGradient>
</defs>
</svg>
