<svg width="40" height="40" viewBox="0 0 40 40" fill="none" xmlns="http://www.w3.org/2000/svg">
<rect width="40" height="40" rx="8" fill="url(#paint0_linear)"/>
<mask id="mask0" style="mask-type:alpha" maskUnits="userSpaceOnUse" x="0" y="0" width="40" height="40">
<rect width="40" height="40" rx="8" fill="white"/>
</mask>
<g mask="url(#mask0)">
<path fill-rule="evenodd" clip-rule="evenodd" d="M28.8147 29.1005C28.4055 29.5097 27.9062 29.7143 27.3169 29.7143H12.683C12.0937 29.7143 11.5945 29.5097 11.1853 29.1005C10.776 28.6913 10.5714 28.192 10.5714 27.6027V12.9688C10.5714 12.3795 10.776 11.8802 11.1853 11.471C11.5945 11.0618 12.0937 10.8572 12.683 10.8572H27.3169C27.9062 10.8572 28.4055 11.0618 28.8147 11.471C29.2239 11.8802 29.4286 12.3795 29.4286 12.9688V27.6027C29.4286 28.192 29.2239 28.6913 28.8147 29.1005ZM12.683 27.6027H27.3169V12.9688H12.683V27.6027ZM20 20.5313C20.6547 20.5313 21.2113 20.3021 21.6696 19.8438C22.128 19.3855 22.3571 18.8289 22.3571 18.1741C22.3571 17.5194 22.128 16.9628 21.6696 16.5045C21.2113 16.0462 20.6547 15.817 20 15.817C19.3452 15.817 18.7887 16.0462 18.3303 16.5045C17.872 16.9628 17.6428 17.5194 17.6428 18.1741C17.6428 18.8289 17.872 19.3855 18.3303 19.8438C18.7887 20.3021 19.3452 20.5313 20 20.5313ZM24.7143 24.7545V25.5402H15.2857V24.7545C15.2857 24.0343 15.875 23.445 17.0536 22.9866C18.0357 22.5938 19.0178 22.3974 20 22.3974C20.9821 22.3974 21.9643 22.5938 22.9464 22.9866C24.125 23.445 24.7143 24.0343 24.7143 24.7545Z" fill="white"/>
</g>
<defs>
<linearGradient id="paint0_linear" x1="-20" y1="20" x2="20" y2="60" gradientUnits="userSpaceOnUse">
<stop stop-color="#FF9988"/>
<stop offset="1" stop-color="#FF5F75"/>
</linearGradient>
</defs>
</svg>
