<svg width="40" height="40" viewBox="0 0 40 40" fill="none" xmlns="http://www.w3.org/2000/svg">
<rect width="40" height="40" rx="8" fill="url(#paint0_linear)"/>
<mask id="mask0" style="mask-type:alpha" maskUnits="userSpaceOnUse" x="0" y="0" width="40" height="40">
<rect width="40" height="40" rx="8" fill="white"/>
</mask>
<g mask="url(#mask0)">
<path fill-rule="evenodd" clip-rule="evenodd" d="M27.7835 30.1317C27.3742 30.541 26.875 30.7456 26.2857 30.7456H13.7143C13.125 30.7456 12.6257 30.541 12.2165 30.1317C11.8073 29.7225 11.6027 29.2396 11.6027 28.6831V11.8884C11.6027 11.3319 11.8073 10.849 12.2165 10.4398C12.6257 10.0305 13.125 9.82593 13.7143 9.82593H22.1116L28.3973 16.1116V28.6831C28.3973 29.2396 28.1927 29.7225 27.7835 30.1317ZM13.7143 28.6831H26.2857V17.1429H21.0312V11.8884H13.7143V28.6831Z" fill="white"/>
</g>
<defs>
<linearGradient id="paint0_linear" x1="0" y1="0" x2="0" y2="40" gradientUnits="userSpaceOnUse">
<stop stop-color="#EFC243"/>
<stop offset="1" stop-color="#F9B150"/>
</linearGradient>
</defs>
</svg>
