<svg width="40" height="40" viewBox="0 0 40 40" fill="none" xmlns="http://www.w3.org/2000/svg">
<rect width="40" height="40" rx="8" fill="url(#paint0_linear)"/>
<mask id="mask0" style="mask-type:alpha" maskUnits="userSpaceOnUse" x="0" y="0" width="40" height="40">
<rect width="40" height="40" rx="8" fill="white"/>
</mask>
<g mask="url(#mask0)">
</g>
<path d="M25.5686 10.0004C25.3371 10.0063 25.1205 10.1162 24.9791 10.2996C24.8376 10.483 24.7864 10.7204 24.8395 10.9458L25.1199 12.2599C23.5733 11.2125 21.7067 10.5132 19.7434 10.5132C14.3714 10.5132 10 14.8845 10 20.2566C10 25.6286 14.3714 30 19.7434 30C25.1154 30 29.4868 25.6286 29.4868 20.2566C29.4926 19.8502 29.124 19.4794 28.7176 19.4794C28.3112 19.4794 27.9427 19.8502 27.9484 20.2566C27.9484 24.7972 24.284 28.4616 19.7434 28.4616C15.2028 28.4616 11.5384 24.7972 11.5384 20.2566C11.5384 15.716 15.2028 12.0516 19.7434 12.0516C21.4414 12.0516 23.1453 12.7349 24.527 13.7343L22.7161 13.8625C22.4279 13.8626 22.164 14.0238 22.0323 14.2802C21.9005 14.5365 21.9231 14.845 22.0908 15.0794C22.2585 15.3138 22.5432 15.4348 22.8283 15.3929L26.418 15.1365C26.6403 15.1206 26.8448 15.009 26.9785 14.8307C27.1122 14.6524 27.1621 14.4249 27.1151 14.207L26.3459 10.6173C26.2718 10.2497 25.9435 9.98909 25.5686 10.0004Z" fill="white" stroke="white" stroke-width="0.25"/>
<path d="M20.2191 24C20.6917 24 20.9949 23.679 20.9949 23.2064C20.9949 23.1618 20.986 23.1172 20.9771 23.0726L20.7809 21.5121L22.0917 22.5108C22.2522 22.6446 22.4306 22.7159 22.6357 22.7159C23.0369 22.7159 23.4025 22.3682 23.4025 21.9134C23.4025 21.5834 23.2064 21.3159 22.8586 21.1822L21.3338 20.5223L22.8586 19.8624C23.2064 19.7287 23.4025 19.4611 23.4025 19.1312C23.4025 18.6764 23.0459 18.3376 22.6357 18.3376C22.4306 18.3376 22.2522 18.4089 22.0917 18.5427L20.7631 19.5414L20.9682 17.9274C20.9771 17.8828 20.986 17.8382 20.986 17.7936C20.986 17.321 20.6828 17 20.2191 17C19.7376 17 19.4166 17.3389 19.4166 17.8025C19.4166 17.8471 19.4255 17.8828 19.4344 17.9274L19.6395 19.5414L18.3108 18.5338C18.1592 18.4089 17.972 18.3376 17.7669 18.3376C17.3656 18.3376 17 18.6854 17 19.1312C17 19.4611 17.1962 19.7197 17.5439 19.8624L19.0599 20.5223L17.5439 21.1732C17.2051 21.3159 17 21.5834 17 21.9134C17 22.3682 17.3656 22.707 17.7669 22.707C17.9631 22.707 18.1503 22.6446 18.3108 22.5108L19.6306 21.5121L19.4255 23.0726C19.4166 23.1172 19.4166 23.1618 19.4166 23.2064C19.4076 23.6701 19.7287 24 20.2191 24Z" fill="white" stroke="white" stroke-width="0.25"/>
<defs>
<linearGradient id="paint0_linear" x1="-18.4858" y1="20" x2="21.5142" y2="56.9716" gradientUnits="userSpaceOnUse">
<stop stop-color="#D7C2FF"/>
<stop offset="1" stop-color="#9D8DFF"/>
</linearGradient>
</defs>
</svg>
