<svg width="40" height="40" viewBox="0 0 40 40" fill="none" xmlns="http://www.w3.org/2000/svg">
<rect width="40" height="40" rx="8" fill="url(#paint0_linear)"/>
<mask id="mask0" style="mask-type:alpha" maskUnits="userSpaceOnUse" x="0" y="0" width="40" height="40">
<rect width="40" height="40" rx="8" fill="white"/>
</mask>
<g mask="url(#mask0)">
</g>
<mask id="mask1" style="mask-type:alpha" maskUnits="userSpaceOnUse" x="8" y="8" width="23" height="24">
<rect x="8" y="8.57141" width="22.8571" height="22.8571" fill="white"/>
</mask>
<g mask="url(#mask1)">
<path fill-rule="evenodd" clip-rule="evenodd" d="M21.6404 28.8889C21.9186 28.8889 22.2107 28.7984 22.5167 28.6176C22.8228 28.4368 22.9758 28.2351 22.9758 28.0125C22.9758 28.2351 23.1357 28.4368 23.4557 28.6176C23.7756 28.7984 24.0608 28.8889 24.3112 28.8889H26.5647V27.1361H24.7702C24.5199 27.1361 24.3112 27.0457 24.1443 26.8649C23.9773 26.684 23.8939 26.4684 23.8939 26.218V24.4653H28.3175V15.5347H23.8939V13.7819C23.8939 13.5315 23.9773 13.3159 24.1443 13.1351C24.3112 12.9542 24.5199 12.8638 24.7702 12.8638H26.5647V11.1111H24.3112C24.0608 11.1111 23.7756 11.2015 23.4557 11.3823C23.1357 11.5632 22.9758 11.7649 22.9758 11.9875C22.9758 11.7649 22.8228 11.5632 22.5167 11.3823C22.2107 11.2015 21.9186 11.1111 21.6404 11.1111H19.4286V12.8638H21.223C21.4734 12.8638 21.6821 12.9542 21.849 13.1351C22.0159 13.3159 22.0994 13.5315 22.0994 13.7819V26.218C22.0994 26.4684 22.0159 26.684 21.849 26.8649C21.6821 27.0457 21.4734 27.1361 21.223 27.1361H19.4286V28.8889H21.6404ZM20.3049 24.4653V22.6708H12.2924V17.3291H20.3049V15.5347H10.5397V24.4653H20.3049ZM23.8939 22.6708H26.5647V17.3291H23.8939V22.6708ZM19.4077 21.3354C19.7555 21.3354 20.0545 21.2241 20.3049 21.0015V18.9984C20.0545 18.748 19.7416 18.6367 19.366 18.6646C18.9904 18.6924 18.6774 18.8384 18.427 19.1027C18.1766 19.367 18.0653 19.687 18.0931 20.0626C18.121 20.4382 18.2601 20.7442 18.5105 20.9807C18.7609 21.2172 19.0599 21.3354 19.4077 21.3354ZM15.9231 20.9389C15.6727 21.2032 15.3597 21.3354 14.9841 21.3354C14.6085 21.3354 14.2886 21.2032 14.0243 20.9389C13.76 20.6746 13.6278 20.3616 13.6278 20C13.6278 19.6383 13.76 19.3253 14.0243 19.061C14.2886 18.7967 14.6085 18.6646 14.9841 18.6646C15.3597 18.6646 15.6727 18.7967 15.9231 19.061C16.1735 19.3253 16.2987 19.6383 16.2987 20C16.2987 20.3616 16.1735 20.6746 15.9231 20.9389Z" fill="white"/>
</g>
<defs>
<linearGradient id="paint0_linear" x1="-11.353" y1="23.2033" x2="23.0107" y2="57.1819" gradientUnits="userSpaceOnUse">
<stop stop-color="#70DFA9"/>
<stop offset="1" stop-color="#00A6AF"/>
</linearGradient>
</defs>
</svg>
