<svg width="40" height="40" viewBox="0 0 40 40" fill="none" xmlns="http://www.w3.org/2000/svg">
<rect width="40" height="40" rx="8" fill="url(#paint0_linear)"/>
<mask id="mask0" style="mask-type:alpha" maskUnits="userSpaceOnUse" x="0" y="0" width="40" height="40">
<rect width="40" height="40" rx="8" fill="white"/>
</mask>
<g mask="url(#mask0)">
<path fill-rule="evenodd" clip-rule="evenodd" d="M30.5957 18.7483H35.6068C36.0807 18.7483 36.4649 19.1324 36.4649 19.6063C36.4649 20.0802 36.0807 20.4644 35.6068 20.4644H29.669C29.5053 20.6896 29.3246 20.9019 29.1284 21.0994L21.9806 28.2472C20.9756 29.2509 19.3474 29.2509 18.3424 28.2472L11.1946 21.0994C10.9984 20.9019 10.8177 20.6896 10.654 20.4644H3.85807C3.38417 20.4644 3 20.0802 3 19.6063C3 19.1324 3.38417 18.7483 3.85807 18.7483H9.76163C8.85058 16.1993 9.83231 13.3596 12.1231 11.9175C14.4139 10.4754 17.399 10.8181 19.3034 12.7417L20.1615 13.5998L21.0196 12.7417C22.9216 10.795 25.9237 10.438 28.2293 11.8842C30.535 13.3304 31.5203 16.1885 30.5957 18.7483ZM14.9616 12.7417C13.8 12.7937 12.7163 13.3403 11.984 14.2434C10.9699 15.5329 10.8118 17.2992 11.5807 18.7483H13.6916L16.1886 15.0156L17.8104 20.6789L18.7714 18.7483H23.0618L25.3099 14.252L27.5581 18.7483H28.7422C29.5112 17.2992 29.3531 15.5329 28.3389 14.2434C27.6048 13.3495 26.5274 12.8072 25.3722 12.75C24.2169 12.6928 23.0912 13.1261 22.2724 13.9431L20.1615 16.0539L18.0506 13.9431C17.283 13.1714 16.2387 12.7389 15.1503 12.7417H14.9616ZM14.6183 20.4644L15.5536 19.0486L17.1497 24.6261L12.988 20.4644H14.6183ZM20.1615 27.2825C20.3903 27.2825 20.6096 27.1911 20.7707 27.0287L27.3522 20.4644H26.4941L25.3099 18.0961L24.1258 20.4644H19.8354L17.5873 25.0294L19.5523 27.0287C19.7134 27.1911 19.9327 27.2825 20.1615 27.2825Z" fill="white"/>
</g>
<defs>
<linearGradient id="paint0_linear" x1="-17.3772" y1="25.2456" x2="22.6228" y2="60" gradientUnits="userSpaceOnUse">
<stop stop-color="#FF9889"/>
<stop offset="1" stop-color="#FF5770"/>
</linearGradient>
</defs>
</svg>
