<svg width="40" height="40" viewBox="0 0 40 40" fill="none" xmlns="http://www.w3.org/2000/svg">
<rect width="40" height="40" rx="8" fill="url(#paint0_linear_122_345)"/>
<mask id="mask0_122_345" style="mask-type:alpha" maskUnits="userSpaceOnUse" x="0" y="0" width="40" height="40">
<rect width="40" height="40" rx="8" fill="white"/>
</mask>
<g mask="url(#mask0_122_345)">
<path d="M8 11H32V28C32 28.2652 31.8946 28.5196 31.7071 28.7071C31.5196 28.8946 31.2652 29 31 29H9C8.73478 29 8.48043 28.8946 8.29289 28.7071C8.10536 28.5196 8 28.2652 8 28V11Z" stroke="white" stroke-width="2" stroke-linecap="round" stroke-linejoin="round"/>
<path fill-rule="evenodd" clip-rule="evenodd" d="M16.6666 24.9888C17.6533 25.6481 18.8133 26 20 26C21.5907 25.9982 23.1158 25.3655 24.2406 24.2406C25.3655 23.1158 25.9982 21.5907 26 20C26 18.8133 25.6481 17.6533 24.9888 16.6666C24.3295 15.6799 23.3925 14.9109 22.2961 14.4567C21.1997 14.0026 19.9933 13.8838 18.8295 14.1153C17.6656 14.3468 16.5965 14.9182 15.7574 15.7574C14.9182 16.5965 14.3468 17.6656 14.1153 18.8295C13.8838 19.9933 14.0026 21.1997 14.4567 22.2961C14.9109 23.3925 15.6799 24.3295 16.6666 24.9888ZM22.1068 22.4068L21.2545 20.4227C21.6171 20.1688 21.8938 19.8106 22.048 19.3957C22.2022 18.9807 22.2265 18.5287 22.1178 18.0997C22.009 17.6706 21.7723 17.2847 21.4391 16.9933C21.1059 16.702 20.692 16.5188 20.2523 16.4682C19.9463 16.4342 19.6366 16.4646 19.3431 16.5574C19.0495 16.6501 18.7786 16.8032 18.5477 17.0068C18.3019 17.2257 18.1087 17.4973 17.9827 17.8013C17.8568 18.1054 17.8012 18.434 17.8202 18.7626C17.8392 19.0912 17.9323 19.4112 18.0926 19.6987C18.2528 19.9862 18.476 20.2337 18.7455 20.4227L17.8932 22.4068C17.8403 22.531 17.819 22.6664 17.8311 22.8008C17.8433 22.9353 17.8885 23.0646 17.9627 23.1773C18.037 23.2901 18.138 23.3827 18.2567 23.4469C18.3754 23.5111 18.5082 23.545 18.6432 23.5455H21.3568C21.4918 23.545 21.6246 23.5111 21.7433 23.4469C21.862 23.3827 21.963 23.2901 22.0373 23.1773C22.1115 23.0646 22.1567 22.9353 22.1689 22.8008C22.181 22.6664 22.1597 22.531 22.1068 22.4068Z" fill="white"/>
</g>
<defs>
<linearGradient id="paint0_linear_122_345" x1="-44" y1="-41.5" x2="40" y2="46" gradientUnits="userSpaceOnUse">
<stop stop-color="white" stop-opacity="0.1"/>
<stop offset="1" stop-color="#4597F8"/>
</linearGradient>
</defs>
</svg>
