<svg width="40" height="40" viewBox="0 0 40 40" fill="none" xmlns="http://www.w3.org/2000/svg">
<rect width="40" height="40" rx="8" fill="url(#paint0_linear_122_345)"/>
<mask id="mask0_122_345" style="mask-type:alpha" maskUnits="userSpaceOnUse" x="0" y="0" width="40" height="40">
<rect width="40" height="40" rx="8" fill="white"/>
</mask>
<g mask="url(#mask0_122_345)">
</g>
<path d="M20 8.625C17.7502 8.625 15.551 9.29213 13.6804 10.542C11.8098 11.7919 10.3518 13.5685 9.49088 15.647C8.62993 17.7255 8.40467 20.0126 8.84357 22.2192C9.28248 24.4257 10.3658 26.4525 11.9567 28.0433C13.5475 29.6342 15.5743 30.7175 17.7809 31.1564C19.9874 31.5953 22.2745 31.3701 24.353 30.5091C26.4315 29.6482 28.2081 28.1902 29.458 26.3196C30.7079 24.449 31.375 22.2498 31.375 20C31.3692 16.9849 30.1689 14.095 28.037 11.963C25.905 9.83107 23.0151 8.63078 20 8.625ZM20 29.625C18.0964 29.625 16.2355 29.0605 14.6526 28.0029C13.0698 26.9453 11.8362 25.4421 11.1077 23.6833C10.3792 21.9246 10.1886 19.9893 10.5599 18.1223C10.9313 16.2552 11.848 14.5402 13.1941 13.1941C14.5402 11.848 16.2552 10.9313 18.1223 10.5599C19.9893 10.1886 21.9246 10.3792 23.6833 11.1077C25.4421 11.8362 26.9453 13.0698 28.0029 14.6526C29.0605 16.2355 29.625 18.0964 29.625 20C29.6221 22.5518 28.6071 24.9983 26.8027 26.8027C24.9983 28.6071 22.5518 29.6221 20 29.625ZM22.0125 20.6781L23.3797 23.8609C23.4645 24.0602 23.4987 24.2773 23.4792 24.493C23.4598 24.7086 23.3873 24.9161 23.2681 25.097C23.149 25.2778 22.987 25.4264 22.7966 25.5294C22.6061 25.6324 22.3931 25.6868 22.1766 25.6875H17.8234C17.6069 25.6868 17.3939 25.6324 17.2034 25.5294C17.013 25.4264 16.851 25.2778 16.7319 25.097C16.6128 24.9161 16.5402 24.7086 16.5208 24.493C16.5013 24.2773 16.5355 24.0602 16.6203 23.8609L17.9875 20.6781C17.5553 20.3749 17.1972 19.9779 16.9402 19.5167C16.6831 19.0555 16.5338 18.5421 16.5033 18.015C16.4727 17.4879 16.5619 16.9607 16.764 16.473C16.9661 15.9852 17.2759 15.5495 17.6703 15.1984C18.0407 14.8718 18.4753 14.6263 18.9462 14.4775C19.4171 14.3287 19.9139 14.2799 20.4047 14.3344C21.1101 14.4156 21.7741 14.7094 22.3086 15.1768C22.8431 15.6443 23.2228 16.2632 23.3972 16.9515C23.5717 17.6398 23.5327 18.3649 23.2853 19.0305C23.038 19.6961 22.5941 20.2708 22.0125 20.6781Z" fill="white"/>
<defs>
<linearGradient id="paint0_linear_122_345" x1="2.5" y1="3" x2="38.5" y2="41" gradientUnits="userSpaceOnUse">
<stop stop-color="#FF9800"/>
<stop offset="1" stop-color="#D78104"/>
</linearGradient>
</defs>
</svg>
