<svg width="40" height="40" viewBox="0 0 40 40" fill="none" xmlns="http://www.w3.org/2000/svg">
<rect width="40" height="40" rx="8" fill="url(#paint0_linear_329_8352)"/>
<mask id="mask0_329_8352" style="mask-type:alpha" maskUnits="userSpaceOnUse" x="0" y="0" width="40" height="40">
<rect width="40" height="40" rx="8" fill="white"/>
</mask>
<g mask="url(#mask0_329_8352)">
<path d="M27.5 21.5H12.5C12.0858 21.5 11.75 21.8358 11.75 22.25V26.75C11.75 27.1642 12.0858 27.5 12.5 27.5H27.5C27.9142 27.5 28.25 27.1642 28.25 26.75V22.25C28.25 21.8358 27.9142 21.5 27.5 21.5Z" stroke="white" stroke-width="2" stroke-linecap="round" stroke-linejoin="round"/>
<path d="M27.5 12.5H12.5C12.0858 12.5 11.75 12.8358 11.75 13.25V17.75C11.75 18.1642 12.0858 18.5 12.5 18.5H27.5C27.9142 18.5 28.25 18.1642 28.25 17.75V13.25C28.25 12.8358 27.9142 12.5 27.5 12.5Z" stroke="white" stroke-width="2" stroke-linecap="round" stroke-linejoin="round"/>
<path d="M24.875 16.625C25.4963 16.625 26 16.1213 26 15.5C26 14.8787 25.4963 14.375 24.875 14.375C24.2537 14.375 23.75 14.8787 23.75 15.5C23.75 16.1213 24.2537 16.625 24.875 16.625Z" fill="white"/>
<path d="M24.875 25.625C25.4963 25.625 26 25.1213 26 24.5C26 23.8787 25.4963 23.375 24.875 23.375C24.2537 23.375 23.75 23.8787 23.75 24.5C23.75 25.1213 24.2537 25.625 24.875 25.625Z" fill="white"/>
</g>
<defs>
<linearGradient id="paint0_linear_329_8352" x1="-20" y1="20" x2="20" y2="60" gradientUnits="userSpaceOnUse">
<stop stop-color="#70DFA9"/>
<stop offset="1" stop-color="#00A6AF"/>
</linearGradient>
</defs>
</svg>
