<svg width="40" height="40" viewBox="0 0 40 40" fill="none" xmlns="http://www.w3.org/2000/svg">
<rect width="40" height="40" rx="8" fill="url(#paint0_linear)"/>
<mask id="mask0" style="mask-type:alpha" maskUnits="userSpaceOnUse" x="0" y="0" width="40" height="40">
<rect width="40" height="40" rx="8" fill="white"/>
</mask>
<g mask="url(#mask0)">
</g>
<mask id="mask1" style="mask-type:alpha" maskUnits="userSpaceOnUse" x="3" y="4" width="35" height="34">
<rect x="3.42859" y="4" width="33.7143" height="33.7143" fill="white"/>
</mask>
<g mask="url(#mask1)">
<path d="M27.7739 28.6114C27.7739 28.909 27.5626 29.1429 27.2937 29.1429H13.9287C13.6646 29.1429 13.4485 28.909 13.4485 28.6114C13.4485 25.0463 16.0375 22 19.4274 22H21.795C25.1084 22 27.7739 24.9721 27.7739 28.6114Z" stroke="white" stroke-width="1.7"/>
<path d="M24.3715 15.1671C24.3715 16.9678 22.6937 19.1429 20.6134 19.1429C18.5285 19.1429 16.8507 16.9678 16.8507 15.1671C16.8507 13.4226 18.5376 12 20.6134 12C22.6847 12 24.3715 13.4226 24.3715 15.1671Z" stroke="white" stroke-width="1.7"/>
<path d="M14.1648 17.8057C14.1648 19.0596 13.0446 20.5715 11.6578 20.5715C10.2711 20.5715 9.15088 19.0596 9.15088 17.8057C9.15088 16.5715 10.2756 15.5715 11.6578 15.5715C13.0401 15.5715 14.1648 16.5715 14.1648 17.8057Z" stroke="white" stroke-width="1.5"/>
<path d="M32.0715 17.8057C32.0715 19.0596 30.9558 20.5715 29.5645 20.5715C28.1778 20.5715 27.0576 19.0596 27.0576 17.8057C27.0576 16.5715 28.1823 15.5715 29.5645 15.5715C30.9468 15.5715 32.0715 16.5715 32.0715 17.8057Z" stroke="white" stroke-width="1.5"/>
<path d="M10.1654 23.4285H11.5068C10.3423 25.0033 10.1141 26.0038 9.99574 27.7142H6.81051C6.52187 27.7142 6.28577 27.5025 6.28577 27.2437C6.28577 25.1409 7.81454 23.4285 10.1654 23.4285Z" stroke="white" stroke-width="1.5"/>
<path d="M30.9776 23.4285H29.6362C30.8007 25.0033 31.0288 26.0038 31.1472 27.7142H34.3324C34.6211 27.7142 34.8572 27.5025 34.8572 27.2437C34.8572 25.1409 33.3284 23.4285 30.9776 23.4285Z" stroke="white" stroke-width="1.5"/>
</g>
<defs>
<linearGradient id="paint0_linear" x1="-20" y1="20" x2="20" y2="60" gradientUnits="userSpaceOnUse">
<stop stop-color="#7657FF"/>
<stop offset="1" stop-color="#5420FF"/>
</linearGradient>
</defs>
</svg>
