<svg width="40" height="40" viewBox="0 0 40 40" fill="none" xmlns="http://www.w3.org/2000/svg">
<rect width="40" height="40" rx="8" fill="url(#paint0_linear_329_8324)"/>
<rect width="40" height="40" rx="8" fill="url(#paint1_linear_329_8324)"/>
<mask id="mask0_329_8324" style="mask-type:alpha" maskUnits="userSpaceOnUse" x="0" y="0" width="40" height="40">
<rect width="40" height="40" rx="8" fill="white"/>
</mask>
<g mask="url(#mask0_329_8324)">
<path d="M18.5 18.5H24.5" stroke="white" stroke-width="2" stroke-linecap="round" stroke-linejoin="round"/>
<path d="M18.5 21.5H24.5" stroke="white" stroke-width="2" stroke-linecap="round" stroke-linejoin="round"/>
<path d="M27.5 11.75H12.5C12.0858 11.75 11.75 12.0858 11.75 12.5V27.5C11.75 27.9142 12.0858 28.25 12.5 28.25H27.5C27.9142 28.25 28.25 27.9142 28.25 27.5V12.5C28.25 12.0858 27.9142 11.75 27.5 11.75Z" stroke="white" stroke-width="2" stroke-linecap="round" stroke-linejoin="round"/>
<path d="M15.5 11.75V28.25" stroke="white" stroke-width="2" stroke-linecap="round" stroke-linejoin="round"/>
</g>
<defs>
<linearGradient id="paint0_linear_329_8324" x1="-20" y1="20" x2="20" y2="60" gradientUnits="userSpaceOnUse">
<stop stop-color="#70DFA9"/>
<stop offset="1" stop-color="#00A6AF"/>
</linearGradient>
<linearGradient id="paint1_linear_329_8324" x1="-18.697" y1="20" x2="21.303" y2="57.394" gradientUnits="userSpaceOnUse">
<stop stop-color="#9BB3F3"/>
<stop offset="1" stop-color="#5677F7"/>
<stop offset="1" stop-color="#009FFF"/>
</linearGradient>
</defs>
</svg>
