<svg width="40" height="40" viewBox="0 0 40 40" fill="none" xmlns="http://www.w3.org/2000/svg">
<rect width="40" height="40" rx="8" fill="url(#paint0_linear_329_8338)"/>
<rect width="40" height="40" rx="8" fill="url(#paint1_linear_329_8338)"/>
<mask id="mask0_329_8338" style="mask-type:alpha" maskUnits="userSpaceOnUse" x="0" y="0" width="40" height="40">
<rect width="40" height="40" rx="8" fill="white"/>
</mask>
<g mask="url(#mask0_329_8338)">
<path d="M16.7094 23.5719C17.5944 22.7227 18.7735 22.2486 20 22.2486C21.2265 22.2486 22.4055 22.7227 23.2906 23.5719" stroke="white" stroke-width="2" stroke-linecap="round" stroke-linejoin="round"/>
<path d="M13.5312 20.3844C15.2613 18.6962 17.5828 17.7513 20 17.7513C22.4172 17.7513 24.7387 18.6962 26.4688 20.3844" stroke="white" stroke-width="2" stroke-linecap="round" stroke-linejoin="round"/>
<path d="M10.3531 17.2062C12.9246 14.6722 16.3898 13.2517 20 13.2517C23.6102 13.2517 27.0755 14.6722 29.6469 17.2062" stroke="white" stroke-width="2" stroke-linecap="round" stroke-linejoin="round"/>
<path d="M20 27.875C20.6213 27.875 21.125 27.3713 21.125 26.75C21.125 26.1287 20.6213 25.625 20 25.625C19.3787 25.625 18.875 26.1287 18.875 26.75C18.875 27.3713 19.3787 27.875 20 27.875Z" fill="white"/>
</g>
<defs>
<linearGradient id="paint0_linear_329_8338" x1="-20" y1="20" x2="20" y2="60" gradientUnits="userSpaceOnUse">
<stop stop-color="#70DFA9"/>
<stop offset="1" stop-color="#00A6AF"/>
</linearGradient>
<linearGradient id="paint1_linear_329_8338" x1="-20" y1="20" x2="20" y2="60" gradientUnits="userSpaceOnUse">
<stop stop-color="#676767"/>
<stop offset="1" stop-color="#1F222D"/>
</linearGradient>
</defs>
</svg>
