<svg width="40" height="40" viewBox="0 0 40 40" fill="none" xmlns="http://www.w3.org/2000/svg">
<rect width="40" height="40" rx="20" fill="black"/>
<path d="M28.6227 25.1447C28.2996 25.9133 27.917 26.6208 27.4738 27.2713C26.8697 28.158 26.3751 28.7719 25.9938 29.1127C25.4029 29.6722 24.7698 29.9587 24.0917 29.975C23.605 29.975 23.018 29.8324 22.3348 29.5432C21.6492 29.2553 21.0192 29.1127 20.4432 29.1127C19.8391 29.1127 19.1911 29.2553 18.4981 29.5432C17.804 29.8324 17.2449 29.9832 16.8174 29.9981C16.1672 30.0266 15.5191 29.7319 14.8723 29.1127C14.4594 28.742 13.943 28.1064 13.3243 27.2061C12.6606 26.2446 12.1149 25.1297 11.6874 23.8587C11.2295 22.4857 11 21.1563 11 19.8692C11 18.3948 11.3095 17.1232 11.9293 16.0576C12.4164 15.2017 13.0645 14.5265 13.8756 14.0308C14.6867 13.5351 15.5631 13.2826 16.5068 13.2664C17.0233 13.2664 17.7005 13.4309 18.542 13.7541C19.3812 14.0783 19.9201 14.2428 20.1563 14.2428C20.3329 14.2428 20.9315 14.0505 21.9463 13.6671C22.9059 13.3116 23.7158 13.1644 24.3793 13.2224C26.1772 13.3718 27.5279 14.1014 28.4262 15.416C26.8183 16.419 26.0229 17.8238 26.0387 19.626C26.0532 21.0297 26.5479 22.1979 27.52 23.1254C27.9606 23.5558 28.4526 23.8885 29 24.1248C28.8813 24.4793 28.756 24.8188 28.6227 25.1447ZM24.4993 8.44013C24.4993 9.54038 24.1089 10.5677 23.3306 11.5185C22.3915 12.6489 21.2555 13.3021 20.0236 13.199C20.0079 13.067 19.9988 12.9281 19.9988 12.7821C19.9988 11.7259 20.4454 10.5955 21.2386 9.67127C21.6346 9.20331 22.1382 8.81421 22.7489 8.50381C23.3583 8.19805 23.9348 8.02896 24.4769 8C24.4927 8.14709 24.4993 8.29418 24.4993 8.44011V8.44013Z" fill="white"/>
</svg>
