<svg width="40" height="40" viewBox="0 0 40 40" fill="none" xmlns="http://www.w3.org/2000/svg">
<path d="M0 20C0 8.95431 8.95431 0 20 0V0C31.0457 0 40 8.95431 40 20V20C40 31.0457 31.0457 40 20 40V40C8.95431 40 0 31.0457 0 20V20Z" fill="white"/>
<path fill-rule="evenodd" clip-rule="evenodd" d="M19.9953 7C16.7456 7.00169 13.6026 8.15263 11.1281 10.247C8.65362 12.3414 7.00906 15.2427 6.48849 18.4321C5.96792 21.6215 6.60528 24.8911 8.28661 27.6561C9.96795 30.4211 12.5836 32.5013 15.6659 33.5248C16.3459 33.651 16.602 33.2295 16.602 32.8712C16.602 32.5128 16.5884 31.4738 16.5839 30.3379C12.7759 31.1606 11.9712 28.731 11.9712 28.731C11.3502 27.1533 10.4525 26.7386 10.4525 26.7386C9.21041 25.8957 10.5455 25.9115 10.5455 25.9115C11.9214 26.0084 12.6444 27.3156 12.6444 27.3156C13.8639 29.3958 15.8472 28.7941 16.627 28.4425C16.7494 27.5613 17.1052 26.9618 17.4974 26.6214C14.4555 26.2789 11.2595 25.1114 11.2595 19.8961C11.2406 18.5436 11.7454 17.2356 12.6694 16.2428C12.5288 15.9002 12.0596 14.5164 12.8031 12.6367C12.8031 12.6367 13.9523 12.2716 16.568 14.0318C18.8117 13.4217 21.1789 13.4217 23.4225 14.0318C26.0359 12.2716 27.1829 12.6367 27.1829 12.6367C27.9286 14.5119 27.4594 15.8957 27.3189 16.2428C28.2458 17.2358 28.7516 18.546 28.731 19.9007C28.731 25.1272 25.5282 26.2789 22.4818 26.6147C22.9714 27.0384 23.4089 27.8655 23.4089 29.1367C23.4089 30.9577 23.393 32.4227 23.393 32.8712C23.393 33.234 23.6401 33.6577 24.3337 33.5248C27.4163 32.5012 30.0322 30.4206 31.7135 27.6551C33.3948 24.8896 34.0319 21.6196 33.5107 18.4299C32.9895 15.2402 31.3442 12.3389 28.8689 10.2449C26.3936 8.15081 23.2498 7.00062 19.9998 7H19.9953Z" fill="#191717"/>
<path d="M11.4904 26.5425C11.461 26.6102 11.3522 26.6304 11.2638 26.5831C11.1754 26.5358 11.1096 26.4479 11.1414 26.378C11.1731 26.3082 11.2796 26.2901 11.368 26.3375C11.4564 26.3848 11.5244 26.4749 11.4904 26.5425Z" fill="#191717"/>
<path d="M12.0456 27.1578C11.9987 27.1813 11.945 27.1879 11.8937 27.1764C11.8424 27.1649 11.7968 27.136 11.7646 27.0947C11.6762 27.0001 11.658 26.8693 11.726 26.8107C11.794 26.7521 11.9164 26.7792 12.0048 26.8738C12.0932 26.9685 12.1136 27.0992 12.0456 27.1578Z" fill="#191717"/>
<path d="M12.5852 27.9399C12.5014 27.9985 12.3586 27.9399 12.2792 27.8227C12.2573 27.8016 12.2399 27.7764 12.2279 27.7486C12.216 27.7207 12.2099 27.6907 12.2099 27.6604C12.2099 27.6301 12.216 27.6001 12.2279 27.5722C12.2399 27.5443 12.2573 27.5191 12.2792 27.4981C12.3631 27.4418 12.5059 27.4981 12.5852 27.6131C12.6646 27.728 12.6668 27.8813 12.5852 27.9399V27.9399Z" fill="#191717"/>
<path d="M13.3174 28.6972C13.2426 28.7806 13.0907 28.758 12.966 28.6453C12.8414 28.5326 12.8119 28.3794 12.8867 28.2982C12.9615 28.2171 13.1134 28.2397 13.2426 28.3501C13.3718 28.4605 13.3967 28.616 13.3174 28.6972V28.6972Z" fill="#191717"/>
<path d="M14.3441 29.1389C14.3101 29.2448 14.1559 29.2921 14.0018 29.2471C13.8477 29.202 13.7457 29.0758 13.7751 28.9676C13.8046 28.8594 13.961 28.8098 14.1174 28.8594C14.2738 28.909 14.3735 29.0285 14.3441 29.1389Z" fill="#191717"/>
<path d="M15.4639 29.2155C15.4639 29.3259 15.337 29.4206 15.1738 29.4229C15.0106 29.4251 14.8769 29.335 14.8769 29.2245C14.8769 29.1141 15.0038 29.0194 15.167 29.0172C15.3302 29.0149 15.4639 29.1028 15.4639 29.2155Z" fill="#191717"/>
<path d="M16.5065 29.042C16.5269 29.1524 16.4136 29.2674 16.2504 29.2944C16.0872 29.3215 15.9444 29.2561 15.924 29.1479C15.9036 29.0397 16.0215 28.9226 16.1801 28.8933C16.3388 28.864 16.4861 28.9316 16.5065 29.042Z" fill="#191717"/>
</svg>
