<svg width="40" height="40" viewBox="0 0 40 40" fill="none" xmlns="http://www.w3.org/2000/svg">
<rect width="40" height="40" rx="20" fill="white"/>
<path fill-rule="evenodd" clip-rule="evenodd" d="M35.36 20.3637C35.36 19.2291 35.2582 18.1382 35.0691 17.0909H20V23.28H28.6109C28.24 25.28 27.1127 26.9746 25.4182 28.1091V32.1237H30.5891C33.6145 29.3382 35.36 25.2364 35.36 20.3637Z" fill="#4285F4"/>
<path fill-rule="evenodd" clip-rule="evenodd" d="M20 36C24.32 36 27.9418 34.5673 30.5891 32.1236L25.4182 28.1091C23.9855 29.0691 22.1527 29.6363 20 29.6363C15.8327 29.6363 12.3055 26.8218 11.0473 23.04H5.70182V27.1854C8.33455 32.4145 13.7455 36 20 36Z" fill="#34A853"/>
<path fill-rule="evenodd" clip-rule="evenodd" d="M11.0473 23.04C10.7273 22.08 10.5455 21.0546 10.5455 20C10.5455 18.9455 10.7273 17.92 11.0473 16.96V12.8146H5.70182C4.61818 14.9746 4 17.4182 4 20C4 22.5818 4.61818 25.0255 5.70182 27.1855L11.0473 23.04Z" fill="#FBBC05"/>
<path fill-rule="evenodd" clip-rule="evenodd" d="M20 10.3636C22.3491 10.3636 24.4582 11.1709 26.1164 12.7564L30.7055 8.16727C27.9345 5.58545 24.3127 4 20 4C13.7455 4 8.33455 7.58545 5.70182 12.8145L11.0473 16.96C12.3055 13.1782 15.8327 10.3636 20 10.3636Z" fill="#EA4335"/>
</svg>
