<svg width="24" height="24" viewBox="0 0 24 24" fill="none" xmlns="http://www.w3.org/2000/svg">
<g clip-path="url(#clip0_1051_3851)">
<path fill-rule="evenodd" clip-rule="evenodd" d="M5.38497 20.2877C2.92211 18.312 1.34375 15.2778 1.34375 11.8784C1.34375 5.93205 6.17167 1.10352 12.1187 1.10352C12.4238 1.10352 12.6714 0.855931 12.6714 0.550782C12.6714 0.245633 12.4238 -0.00195312 12.1187 -0.00195312C5.56137 -0.00195312 0.238281 5.32176 0.238281 11.8784C0.238281 15.6269 1.97757 18.9718 4.69297 21.1499C4.93065 21.3412 5.27912 21.3028 5.46977 21.0645C5.66103 20.8268 5.62265 20.4783 5.38497 20.2877ZM12.0486 19.8208C7.66451 19.8208 4.10547 16.2617 4.10547 11.8782C4.10547 8.94063 5.70425 6.37317 8.07736 4.99907C8.34166 4.84618 8.43203 4.50761 8.27914 4.24393C8.12626 3.97963 7.78769 3.88927 7.52339 4.04215C4.82037 5.60751 3 8.53211 3 11.8782C3 16.872 7.05421 20.9269 12.0486 20.9269C12.3538 20.9269 12.6014 20.6787 12.6014 20.3741C12.6014 20.0684 12.3538 19.8208 12.0486 19.8208ZM20.4959 11.8787C20.4959 7.49521 16.9369 3.93617 12.5534 3.93617C12.2476 3.93617 12 3.68796 12 3.38343C12 3.07766 12.2476 2.83008 12.5534 2.83008C17.5472 2.83008 21.6014 6.88491 21.6014 11.8787C21.6014 15.2248 19.7816 18.1494 17.078 19.7148C16.8137 19.8677 16.4751 19.7773 16.3222 19.513C16.1693 19.2493 16.2597 18.9108 16.524 18.7579C18.8971 17.3838 20.4959 14.8163 20.4959 11.8787ZM18.8517 3.46925C21.314 5.44498 22.8923 8.47852 22.8923 11.8785C22.8923 17.8249 18.0644 22.6528 12.118 22.6528C11.8123 22.6528 11.5647 22.901 11.5647 23.2062C11.5647 23.5113 11.8123 23.7589 12.118 23.7589C18.6747 23.7589 23.9978 18.4352 23.9978 11.8785C23.9978 8.13004 22.2585 4.78516 19.5431 2.60703C19.3054 2.41639 18.957 2.45414 18.7663 2.69245C18.5751 2.93013 18.6134 3.27861 18.8517 3.46925ZM5.21396 11.8677C5.21396 8.07656 8.31582 4.97471 12.107 4.97471C15.8981 4.97471 19 8.07656 19 11.8677C19 15.6589 15.8981 18.7607 12.107 18.7607C8.31582 18.7607 5.21396 15.6589 5.21396 11.8677ZM12.7963 11.6609C13.0031 11.592 13.1409 11.3852 13.2788 11.1784C13.6924 10.4891 13.4856 9.66196 12.7963 9.31731C12.107 8.90373 11.3488 9.17945 10.9352 9.79982C10.5216 10.4202 10.7284 11.2474 11.4177 11.6609V13.9356C11.4177 14.3492 11.6934 14.6249 12.107 14.6249C12.5206 14.6249 12.7963 14.3492 12.7963 13.9356V11.6609Z" fill="#62AD56"/>
</g>
<defs>
<clipPath id="clip0_1051_3851">
<rect width="24" height="24" fill="white"/>
</clipPath>
</defs>
</svg>
