<svg width="16" height="20" viewBox="0 0 16 20" fill="none" xmlns="http://www.w3.org/2000/svg">
<path fill-rule="evenodd" clip-rule="evenodd" d="M2.18268 0H9.56703C10.1458 0.000859745 10.7006 0.21907 11.11 0.606854C11.5194 0.994638 11.7501 1.5204 11.7514 2.06902V5.13104H11.1246V2.60459H0.628528V17.104H11.1263V15.5006L11.7531 15.0122V17.931C11.7518 18.4793 11.5214 19.0048 11.1123 19.3926C10.7033 19.7803 10.1489 19.9987 9.57046 20H2.18611C1.60765 19.9996 1.0529 19.782 0.64322 19.3949C0.233539 19.0077 0.0022701 18.4826 0 17.9342L0 2.06902C0.00136056 1.52068 0.231757 0.995165 0.640794 0.607427C1.04983 0.219689 1.60421 0.00128972 2.18268 0V0ZM6.25094 8.46492C6.25683 8.38908 6.29277 8.31817 6.35154 8.26641C6.41031 8.21466 6.48756 8.18589 6.56778 8.18589C6.648 8.18589 6.72525 8.21466 6.78402 8.26641C6.84279 8.31817 6.87873 8.38908 6.88462 8.46492V8.85235L7.22808 8.63747C7.26128 8.60751 7.301 8.5848 7.34444 8.57094C7.38789 8.55707 7.43401 8.55238 7.47957 8.55719C7.52513 8.56201 7.56902 8.57621 7.60818 8.59881C7.64733 8.62141 7.6808 8.65186 7.70623 8.68801C7.73165 8.72417 7.74843 8.76516 7.75538 8.80811C7.76232 8.85107 7.75927 8.89494 7.74644 8.93666C7.73361 8.97837 7.7113 9.01692 7.68109 9.0496C7.65087 9.08228 7.61348 9.1083 7.57154 9.12583L7.13534 9.4042L7.57325 9.67931C7.63284 9.72631 7.67212 9.79244 7.68362 9.8651C7.69512 9.93777 7.67804 10.0119 7.63563 10.0734C7.59322 10.1349 7.52844 10.1795 7.45361 10.1987C7.37878 10.2179 7.29912 10.2103 7.22979 10.1774L6.88634 9.96256V10.3516C6.88044 10.4275 6.8445 10.4984 6.78573 10.5501C6.72696 10.6019 6.64971 10.6306 6.5695 10.6306C6.48928 10.6306 6.41203 10.6019 6.35326 10.5501C6.29449 10.4984 6.25855 10.4275 6.25266 10.3516V9.97395L5.9092 10.1888C5.87495 10.2142 5.83552 10.2326 5.7934 10.2428C5.75128 10.253 5.70738 10.2548 5.66448 10.2481C5.62158 10.2414 5.58061 10.2264 5.54417 10.2039C5.50773 10.1814 5.4766 10.152 5.45276 10.1176C5.42892 10.0831 5.41288 10.0443 5.40566 10.0037C5.39844 9.96303 5.40019 9.92141 5.41081 9.88144C5.42143 9.84148 5.44068 9.80404 5.46735 9.77148C5.49402 9.73893 5.52752 9.71198 5.56574 9.69233L6.00365 9.4156L5.56574 9.13886C5.52902 9.11846 5.49705 9.0912 5.47177 9.05874C5.44649 9.02628 5.42843 8.98929 5.41869 8.95002C5.40895 8.91074 5.40772 8.87 5.41509 8.83026C5.42246 8.79052 5.43827 8.75262 5.46155 8.71885C5.48484 8.68507 5.51512 8.65614 5.55056 8.63379C5.586 8.61144 5.62585 8.59616 5.66771 8.58885C5.70957 8.58155 5.75256 8.58238 5.79407 8.5913C5.83558 8.60021 5.87475 8.61703 5.9092 8.64073L6.25266 8.85561V8.46492H6.25094ZM12.902 8.46492C12.902 8.38548 12.9353 8.30929 12.9946 8.25312C13.0538 8.19695 13.1342 8.16539 13.218 8.16539C13.3018 8.16539 13.3822 8.19695 13.4414 8.25312C13.5007 8.30929 13.534 8.38548 13.534 8.46492V8.85235L13.8774 8.63747C13.9451 8.60918 14.0212 8.60443 14.0922 8.62406C14.1632 8.6437 14.2247 8.68645 14.2657 8.74481C14.3067 8.80316 14.3247 8.87336 14.3166 8.94306C14.3084 9.01276 14.2745 9.07748 14.2209 9.12583L13.783 9.4042L14.2209 9.67931C14.2607 9.6982 14.2959 9.72487 14.3241 9.75757C14.3523 9.79026 14.3729 9.82825 14.3846 9.86902C14.3962 9.9098 14.3986 9.95244 14.3916 9.99416C14.3846 10.0359 14.3684 10.0757 14.344 10.1111C14.3197 10.1464 14.2877 10.1765 14.2502 10.1993C14.2127 10.2221 14.1705 10.2371 14.1264 10.2434C14.0824 10.2497 14.0374 10.247 13.9945 10.2357C13.9516 10.2243 13.9117 10.2045 13.8774 10.1774L13.534 9.96256V10.3516C13.534 10.4311 13.5007 10.5072 13.4414 10.5634C13.3822 10.6196 13.3018 10.6511 13.218 10.6511C13.1342 10.6511 13.0538 10.6196 12.9946 10.5634C12.9353 10.5072 12.902 10.4311 12.902 10.3516V9.97395L12.5585 10.1888C12.5245 10.2168 12.4845 10.2375 12.4413 10.2497C12.3982 10.2618 12.3527 10.265 12.3081 10.2591C12.2635 10.2532 12.2207 10.2384 12.1826 10.2155C12.1446 10.1927 12.1121 10.1624 12.0874 10.1267C12.0627 10.091 12.0463 10.0507 12.0394 10.0085C12.0325 9.96629 12.0352 9.92318 12.0473 9.88205C12.0594 9.84091 12.0806 9.8027 12.1095 9.76998C12.1385 9.73726 12.1745 9.71079 12.2151 9.69233L12.653 9.4156L12.2151 9.13886C12.1752 9.11996 12.14 9.09329 12.1118 9.0606C12.0836 9.0279 12.063 8.98992 12.0514 8.94915C12.0398 8.90837 12.0374 8.86573 12.0444 8.82401C12.0513 8.78229 12.0676 8.74245 12.0919 8.70709C12.1163 8.67173 12.1483 8.64166 12.1858 8.61886C12.2233 8.59605 12.2655 8.58102 12.3095 8.57475C12.3536 8.56848 12.3986 8.57112 12.4415 8.58249C12.4844 8.59386 12.5243 8.61371 12.5585 8.64073L12.902 8.85561V8.46492ZM9.57733 8.46492C9.57733 8.38548 9.61062 8.30929 9.66988 8.25312C9.72914 8.19695 9.80951 8.16539 9.89331 8.16539C9.97712 8.16539 10.0575 8.19695 10.1167 8.25312C10.176 8.30929 10.2093 8.38548 10.2093 8.46492V8.85235L10.5528 8.63747C10.6202 8.61145 10.6951 8.60831 10.7647 8.62859C10.8343 8.64887 10.8944 8.69132 10.9348 8.74876C10.9752 8.8062 10.9934 8.8751 10.9864 8.94381C10.9793 9.01252 10.9475 9.07682 10.8962 9.12583L10.4583 9.4042L10.8962 9.67931C10.9361 9.6982 10.9713 9.72487 10.9995 9.75757C11.0277 9.79026 11.0483 9.82825 11.0599 9.86902C11.0715 9.9098 11.0739 9.95244 11.0669 9.99416C11.06 10.0359 11.0437 10.0757 11.0194 10.1111C10.995 10.1464 10.963 10.1765 10.9255 10.1993C10.888 10.2221 10.8458 10.2371 10.8018 10.2434C10.7577 10.2497 10.7127 10.247 10.6698 10.2357C10.6269 10.2243 10.587 10.2045 10.5528 10.1774L10.2093 9.96256V10.3516C10.2093 10.4311 10.176 10.5072 10.1167 10.5634C10.0575 10.6196 9.97712 10.6511 9.89331 10.6511C9.80951 10.6511 9.72914 10.6196 9.66988 10.5634C9.61062 10.5072 9.57733 10.4311 9.57733 10.3516V9.97395L9.23387 10.1888C9.16459 10.2244 9.08372 10.2341 9.0073 10.2158C8.93087 10.1976 8.86447 10.1528 8.82125 10.0903C8.77803 10.0278 8.76116 9.95226 8.77397 9.87854C8.78678 9.80483 8.82834 9.73837 8.89041 9.69233L9.32832 9.4156L8.89041 9.13886C8.85056 9.11996 8.81537 9.09329 8.78716 9.0606C8.75895 9.0279 8.73836 8.98992 8.72672 8.94915C8.71509 8.90837 8.71269 8.86573 8.71968 8.82401C8.72666 8.78229 8.74288 8.74245 8.76725 8.70709C8.79163 8.67173 8.82362 8.64166 8.86113 8.61886C8.89863 8.59605 8.9408 8.58102 8.98487 8.57475C9.02894 8.56848 9.0739 8.57112 9.11682 8.58249C9.15973 8.59386 9.19962 8.61371 9.23387 8.64073L9.57733 8.85561V8.46492ZM4.55941 6.3666H15.1414C15.3697 6.37 15.5876 6.45819 15.7482 6.6122C15.9087 6.76622 15.9991 6.97378 16 7.1903V11.5969C16.0003 11.8169 15.9113 12.0285 15.7514 12.1879C15.5915 12.3473 15.3731 12.4423 15.1414 12.4532H11.4251C10.4755 13.5943 9.23731 14.2813 7.77418 14.6508C7.71671 14.6651 7.65622 14.6641 7.5993 14.6481C7.54237 14.632 7.49119 14.6014 7.45133 14.5597C7.42304 14.5299 7.40126 14.4952 7.38723 14.4574C7.3732 14.4197 7.36721 14.3797 7.36961 14.3397C7.37201 14.2997 7.38274 14.2606 7.40119 14.2246C7.41963 14.1886 7.44543 14.1564 7.47708 14.1299C7.64986 13.9875 7.80747 13.8294 7.94762 13.6578C8.21609 13.2794 8.41631 12.8613 8.54009 12.4206H4.55941C4.32936 12.4194 4.10913 12.3322 3.94646 12.178C3.78379 12.0238 3.69181 11.815 3.69046 11.5969V7.1903C3.69091 6.97197 3.78261 6.76271 3.94547 6.60833C4.10833 6.45395 4.32909 6.36703 4.55941 6.3666V6.3666ZM5.87657 17.7438C6.05316 17.7441 6.2257 17.794 6.37245 17.8871C6.51921 17.9802 6.63362 18.1123 6.70127 18.267C6.76892 18.4216 6.78679 18.5917 6.75263 18.756C6.71847 18.9202 6.6338 19.0712 6.50929 19.1899C6.38478 19.3086 6.226 19.3897 6.05294 19.423C5.87989 19.4564 5.7003 19.4404 5.5368 19.3772C5.3733 19.3139 5.23319 19.2062 5.13414 19.0676C5.03508 18.9291 4.9815 18.7658 4.98014 18.5984C4.97946 18.4864 5.00215 18.3754 5.0469 18.2717C5.09164 18.1681 5.15756 18.0738 5.24087 17.9944C5.32418 17.915 5.42323 17.8519 5.53233 17.8089C5.64142 17.7659 5.75841 17.7438 5.87657 17.7438V17.7438Z" fill="currentColor"/>
</svg>
