<svg width="22" height="21" viewBox="0 0 22 21" fill="none" xmlns="http://www.w3.org/2000/svg">
<path d="M19.6201 14.7061L16.367 11.4527C16.7804 10.4696 17.0101 9.38869 17.0101 8.25488C17.0101 3.69553 13.3142 0 8.75521 0C8.18418 0 7.62339 0.0439511 7.08838 0.168534C5.64559 0.504612 6.38582 1.45138 6.62474 1.71046C6.84086 1.94476 9.56451 4.65023 9.56451 4.65023C10.7756 5.86136 11.5654 7.03582 9.56451 9.03609C7.61083 10.9901 6.38978 10.2476 5.17898 9.03609C5.17898 9.03609 2.30332 6.1601 2.2359 6.09269C2.14338 6.00049 0.969253 5.18623 0.754124 6.21661C0.616652 6.87488 0.5 7.55167 0.5 8.25488C0.5 12.8142 4.19619 16.5104 8.75554 16.5104C9.90488 16.5104 10.9984 16.2738 11.9931 15.8505L15.2345 19.0916C16.4457 20.3028 18.4089 20.3028 19.6201 19.0916C20.8315 17.8808 20.8315 15.9173 19.6201 14.7061Z" stroke="currentColor"/>
</svg>
